<svg width="22" height="24" viewBox="0 0 22 24" fill="none" xmlns="http://www.w3.org/2000/svg">
<path fill-rule="evenodd" clip-rule="evenodd" d="M11 2C6.02944 2 2 6.02944 2 11C2 13.4375 2.96768 15.647 4.54201 17.2685C4.76695 17.5002 4.86616 17.8263 4.8084 18.144L4.34164 20.7111L6.9163 19.4238C7.16923 19.2973 7.46389 19.2839 7.7273 19.3868C8.74029 19.7824 9.84354 20 11 20C15.9706 20 20 15.9706 20 11C20 6.02944 15.9706 2 11 2ZM0 11C0 4.92487 4.92487 0 11 0C17.0751 0 22 4.92487 22 11C22 17.0751 17.0751 22 11 22C9.74995 22 8.54681 21.7911 7.42476 21.4057L3.44721 23.3944C3.10843 23.5638 2.70302 23.5273 2.4 23.3C2.09698 23.0727 1.94837 22.6938 2.01613 22.3211L2.75133 18.2775C1.03985 16.3389 0 13.79 0 11Z" fill="black"/>
</svg>
