<svg width="22" height="22" viewBox="0 0 22 22" fill="none" xmlns="http://www.w3.org/2000/svg">
<path fill-rule="evenodd" clip-rule="evenodd" d="M5.29289 10.2929C5.68342 9.90237 6.31658 9.90237 6.70711 10.2929L10 13.5858L10 1.23077C10 0.551034 10.4477 0 11 0C11.5523 0 12 0.551034 12 1.23077L12 13.5858L15.2929 10.2929C15.6834 9.90237 16.3166 9.90237 16.7071 10.2929C17.0976 10.6834 17.0976 11.3166 16.7071 11.7071L11.7071 16.7071C11.5196 16.8946 11.2652 17 11 17C10.7348 17 10.4804 16.8946 10.2929 16.7071L5.29289 11.7071C4.90237 11.3166 4.90237 10.6834 5.29289 10.2929ZM1.375 20C0.615608 20 0 20.4477 0 21C0 21.5523 0.615608 22 1.375 22H20.625C21.3844 22 22 21.5523 22 21C22 20.4477 21.3844 20 20.625 20H1.375Z" fill="black"/>
</svg>
