<svg width="20" height="20" viewBox="0 0 20 20" fill="none" xmlns="http://www.w3.org/2000/svg">
<circle cx="10" cy="10" r="10" fill="#CF000E"/>
<path d="M9.9 14.12C9.204 14.12 8.596 13.992 8.076 13.736C7.556 13.48 7.152 13.128 6.864 12.68C6.584 12.224 6.444 11.712 6.444 11.144C6.444 10.904 6.48 10.664 6.552 10.424C6.624 10.184 6.712 9.96 6.816 9.752C6.92 9.536 7.024 9.344 7.128 9.176C7.24 9.008 7.332 8.872 7.404 8.768L9.564 5.84C9.596 5.8 9.644 5.752 9.708 5.696C9.78 5.632 9.872 5.6 9.984 5.6H11.34C11.412 5.6 11.472 5.628 11.52 5.684C11.568 5.732 11.592 5.792 11.592 5.864C11.592 5.896 11.584 5.928 11.568 5.96C11.56 5.984 11.548 6.004 11.532 6.02L9.888 8.288C9.952 8.272 10.024 8.26 10.104 8.252C10.184 8.244 10.256 8.24 10.32 8.24C10.704 8.248 11.072 8.328 11.424 8.48C11.784 8.624 12.104 8.824 12.384 9.08C12.664 9.328 12.884 9.624 13.044 9.968C13.212 10.312 13.296 10.696 13.296 11.12C13.296 11.656 13.156 12.152 12.876 12.608C12.604 13.064 12.212 13.432 11.7 13.712C11.196 13.984 10.596 14.12 9.9 14.12ZM9.876 12.56C10.14 12.56 10.384 12.508 10.608 12.404C10.832 12.292 11.012 12.132 11.148 11.924C11.284 11.708 11.352 11.448 11.352 11.144C11.352 10.832 11.284 10.572 11.148 10.364C11.012 10.148 10.832 9.988 10.608 9.884C10.384 9.772 10.14 9.716 9.876 9.716C9.62 9.716 9.376 9.772 9.144 9.884C8.92 9.988 8.74 10.148 8.604 10.364C8.476 10.572 8.412 10.832 8.412 11.144C8.412 11.448 8.48 11.708 8.616 11.924C8.752 12.132 8.932 12.292 9.156 12.404C9.38 12.508 9.62 12.56 9.876 12.56Z" fill="white"/>
</svg>
