<svg width="24" height="24" viewBox="0 0 24 24" fill="none" xmlns="http://www.w3.org/2000/svg">
<path fill-rule="evenodd" clip-rule="evenodd" d="M22 12C22 17.5228 17.5228 22 12 22C6.47715 22 2 17.5228 2 12C2 6.47715 6.47715 2 12 2C17.5228 2 22 6.47715 22 12ZM24 12C24 18.6274 18.6274 24 12 24C5.37258 24 0 18.6274 0 12C0 5.37258 5.37258 0 12 0C18.6274 0 24 5.37258 24 12ZM8.488 7.64201C8.16267 8.11185 8 8.57684 8 9.03699C8 9.2598 8.10133 9.46808 8.304 9.66182C8.512 9.85073 8.76533 9.94518 9.064 9.94518C9.57067 9.94518 9.91467 9.67151 10.096 9.12417C10.288 8.60106 10.5227 8.2063 10.8 7.93989C11.0773 7.66865 11.5093 7.53303 12.096 7.53303C12.5973 7.53303 13.0053 7.66623 13.32 7.93263C13.64 8.19903 13.8 8.52598 13.8 8.91347C13.8 9.11207 13.7467 9.29612 13.64 9.46565C13.5387 9.63518 13.4107 9.79018 13.256 9.93065C13.1067 10.0663 12.8613 10.2697 12.52 10.541C12.1307 10.8509 11.8213 11.1198 11.592 11.3474C11.3627 11.5702 11.1787 11.8318 11.04 12.1321C10.9013 12.4276 10.832 12.7787 10.832 13.1856C10.832 13.5101 10.9253 13.7547 11.112 13.9194C11.304 14.0841 11.5387 14.1664 11.816 14.1664C12.3493 14.1664 12.6667 13.9146 12.768 13.4108C12.8267 13.1735 12.8693 13.0088 12.896 12.9168C12.928 12.8199 12.9707 12.7255 13.024 12.6334C13.0773 12.5365 13.1573 12.4324 13.264 12.321C13.376 12.2048 13.5227 12.0716 13.704 11.9214C14.36 11.3886 14.8133 11.0108 15.064 10.788C15.32 10.5603 15.5387 10.2915 15.72 9.98151C15.9067 9.67151 16 9.31066 16 8.89894C16 8.37583 15.8373 7.89146 15.512 7.44584C15.192 7.00022 14.736 6.64905 14.144 6.39234C13.552 6.13078 12.8693 6 12.096 6C11.264 6 10.536 6.155 9.912 6.46499C9.288 6.77499 8.81333 7.16733 8.488 7.64201ZM11.048 16.7166C11.2933 16.9055 11.5787 17 11.904 17C12.2187 17 12.496 16.9031 12.736 16.7094C12.976 16.5156 13.096 16.2492 13.096 15.9102C13.096 15.605 12.9813 15.3483 12.752 15.14C12.5227 14.9317 12.24 14.8276 11.904 14.8276C11.5627 14.8276 11.2747 14.9317 11.04 15.14C10.8053 15.3483 10.688 15.605 10.688 15.9102C10.688 16.2541 10.808 16.5229 11.048 16.7166Z" fill="black"/>
</svg>
