<svg width="19" height="19" viewBox="0 0 19 19" fill="none" xmlns="http://www.w3.org/2000/svg">
<path fill-rule="evenodd" clip-rule="evenodd" d="M6.86111 4.75C7.5505 4.75 8.13699 5.19059 8.35435 5.80556H14.5799C14.9806 5.80556 15.3056 6.04185 15.3056 6.33333C15.3056 6.62482 14.9806 6.86111 14.5799 6.86111H8.35435C8.13699 7.47607 7.5505 7.91667 6.86111 7.91667C6.17172 7.91667 5.58523 7.47607 5.36787 6.86111H4.42014C4.01935 6.86111 3.69444 6.62482 3.69444 6.33333C3.69444 6.04185 4.01935 5.80556 4.42014 5.80556H5.36787C5.58523 5.19059 6.17172 4.75 6.86111 4.75ZM4.42014 12.1389C4.01935 12.1389 3.69444 12.3752 3.69444 12.6667C3.69444 12.9581 4.01935 13.1944 4.42014 13.1944H10.6456C10.863 13.8094 11.4495 14.25 12.1389 14.25C12.8283 14.25 13.4148 13.8094 13.6321 13.1944H14.5799C14.9806 13.1944 15.3056 12.9581 15.3056 12.6667C15.3056 12.3752 14.9806 12.1389 14.5799 12.1389H13.6321C13.4148 11.5239 12.8283 11.0833 12.1389 11.0833C11.4495 11.0833 10.863 11.5239 10.6456 12.1389H4.42014Z" fill="black"/>
</svg>
