<svg width="36" height="36" viewBox="0 0 36 36" fill="none" xmlns="http://www.w3.org/2000/svg">
<path fill-rule="evenodd" clip-rule="evenodd" d="M24 16C24 20.4183 20.4183 24 16 24C11.5817 24 8 20.4183 8 16C8 11.5817 11.5817 8 16 8C20.4183 8 24 11.5817 24 16ZM22.2225 23.8287C20.5148 25.1879 18.3522 26 16 26C10.4772 26 6 21.5228 6 16C6 10.4772 10.4772 6 16 6C21.5228 6 26 10.4772 26 16C26 18.4578 25.1133 20.7086 23.6423 22.4497C23.6806 22.4777 23.7173 22.5086 23.752 22.5425L28.2416 26.9194C28.6371 27.3049 28.6371 27.93 28.2416 28.3155C27.8461 28.701 27.205 28.701 26.8095 28.3155L22.32 23.9386C22.2843 23.9038 22.2518 23.867 22.2225 23.8287Z" fill="#CCCCCC"/>
</svg>
