<svg width="20" height="20" viewBox="0 0 20 20" fill="none" xmlns="http://www.w3.org/2000/svg">
<path fill-rule="evenodd" clip-rule="evenodd" d="M17.0711 17.0711C13.1658 20.9763 6.83417 20.9763 2.92893 17.0711C-0.976311 13.1658 -0.976311 6.83417 2.92893 2.92893C6.83417 -0.976311 13.1658 -0.976311 17.0711 2.92893C20.9763 6.83417 20.9763 13.1658 17.0711 17.0711ZM5.8752 5.87519C6.20064 5.54976 6.6953 5.51678 6.98006 5.80154L10 8.82149L13.0199 5.80156C13.3047 5.51681 13.7994 5.54978 14.1248 5.87522C14.4502 6.20066 14.4832 6.69532 14.1984 6.98008L11.1785 10L14.1984 13.0199C14.4832 13.3047 14.4502 13.7993 14.1248 14.1248C13.7993 14.4502 13.3047 14.4832 13.0199 14.1984L10 11.1785L6.98007 14.1985C6.69531 14.4832 6.20065 14.4502 5.87521 14.1248C5.54977 13.7994 5.5168 13.3047 5.80155 13.0199L8.8215 10L5.80155 6.98005C5.51679 6.69529 5.54977 6.20063 5.8752 5.87519Z" fill="#CCCCCC"/>
</svg>
