<svg width="14" height="14" viewBox="0 0 14 14" fill="none" xmlns="http://www.w3.org/2000/svg">
<path fill-rule="evenodd" clip-rule="evenodd" d="M3.11103 0.777832C3.41785 0.777832 3.66659 1.02656 3.66659 1.33339V2.4445H10.3333V1.33339C10.3333 1.02656 10.582 0.777832 10.8888 0.777832C11.1956 0.777832 11.4444 1.02656 11.4444 1.33339V2.4445H13.111C13.4179 2.4445 13.6666 2.69323 13.6666 3.00005V13.0001C13.6666 13.3069 13.4179 13.5556 13.111 13.5556H0.888808C0.581983 13.5556 0.333252 13.3069 0.333252 13.0001V3.00005C0.333252 2.69323 0.581983 2.4445 0.888807 2.4445H2.55547V1.33339C2.55547 1.02656 2.8042 0.777832 3.11103 0.777832ZM2.55547 4.11117V3.55561H1.44436V12.4445H12.5555V3.55561H11.4444V4.11117C11.4444 4.41799 11.1956 4.66672 10.8888 4.66672C10.582 4.66672 10.3333 4.41799 10.3333 4.11117V3.55561H3.66659V4.11117C3.66659 4.41799 3.41785 4.66672 3.11103 4.66672C2.8042 4.66672 2.55547 4.41799 2.55547 4.11117ZM3.66659 9.11117C4.28023 9.11117 4.7777 8.6137 4.7777 8.00005C4.7777 7.3864 4.28023 6.88894 3.66659 6.88894C3.05294 6.88894 2.55547 7.3864 2.55547 8.00005C2.55547 8.6137 3.05294 9.11117 3.66659 9.11117ZM8.11103 8.00005C8.11103 8.6137 7.61357 9.11117 6.99992 9.11117C6.38627 9.11117 5.88881 8.6137 5.88881 8.00005C5.88881 7.3864 6.38627 6.88894 6.99992 6.88894C7.61357 6.88894 8.11103 7.3864 8.11103 8.00005ZM10.3333 9.11117C10.9469 9.11117 11.4444 8.6137 11.4444 8.00005C11.4444 7.3864 10.9469 6.88894 10.3333 6.88894C9.7196 6.88894 9.22214 7.3864 9.22214 8.00005C9.22214 8.6137 9.7196 9.11117 10.3333 9.11117Z" fill="white"/>
</svg>
