<svg width="16" height="16" viewBox="0 0 16 16" fill="none" xmlns="http://www.w3.org/2000/svg">
<path fill-rule="evenodd" clip-rule="evenodd" d="M4.19559 7.52855C4.45594 7.26821 4.87805 7.26821 5.1384 7.52855L7.33366 9.72382L7.33366 1.48714C7.33366 1.03398 7.63213 0.666626 8.00032 0.666626C8.36851 0.666626 8.66699 1.03398 8.66699 1.48714L8.66699 9.72382L10.8623 7.52856C11.1226 7.26821 11.5447 7.26821 11.8051 7.52856C12.0654 7.7889 12.0654 8.21101 11.8051 8.47136L8.47173 11.8047C8.3467 11.9297 8.17714 12 8.00032 12C7.82351 12 7.65394 11.9297 7.52892 11.8047L4.19559 8.47136C3.93524 8.21101 3.93524 7.7889 4.19559 7.52855ZM1.58366 14C1.0774 14 0.666992 14.2984 0.666992 14.6666C0.666992 15.0348 1.0774 15.3333 1.58366 15.3333H14.417C14.9233 15.3333 15.3337 15.0348 15.3337 14.6666C15.3337 14.2984 14.9233 14 14.417 14H1.58366Z" fill="white"/>
</svg>
