<svg width="12" height="15" viewBox="0 0 12 15" fill="none" xmlns="http://www.w3.org/2000/svg">
<path fill-rule="evenodd" clip-rule="evenodd" d="M6.89532 1.99136C6.48867 2.1739 6.18359 2.51765 6.03771 2.77032L2.03771 9.69852C1.82834 10.0612 1.62103 10.6813 1.68613 11.3195C1.74769 11.923 2.05455 12.5858 2.95674 13.1067C3.85894 13.6276 4.58637 13.5619 5.13983 13.3135C5.72507 13.0508 6.15846 12.5612 6.36784 12.1985L10.3678 5.27032C10.5212 5.0046 10.861 4.91356 11.1267 5.06697C11.3925 5.22038 11.4835 5.56015 11.3301 5.82587L7.33009 12.7541C7.03152 13.2712 6.4384 13.9485 5.59486 14.3271C4.71954 14.7201 3.61594 14.7703 2.40119 14.069C1.18643 13.3676 0.678124 12.3868 0.580753 11.4322C0.48692 10.5124 0.776894 9.66009 1.07546 9.14296L5.07546 2.21476C5.31053 1.8076 5.77534 1.27619 6.44028 0.977696C7.137 0.664935 8.01172 0.629199 8.96186 1.17776C9.912 1.72632 10.3184 2.50172 10.3959 3.26148C10.4699 3.98658 10.2421 4.65482 10.007 5.06198L6.44397 11.2333C6.30293 11.4776 6.02893 11.7963 5.63117 11.9814C5.20127 12.1815 4.66366 12.2054 4.10451 11.8826C3.54535 11.5598 3.29727 11.0822 3.25561 10.6099C3.21707 10.1728 3.35604 9.77622 3.49707 9.53194L6.04609 5.1169C6.19951 4.85119 6.53928 4.76014 6.805 4.91356C7.07072 5.06697 7.16176 5.40674 7.00835 5.67246L4.45933 10.0875C4.40428 10.1828 4.34837 10.3529 4.36242 10.5123C4.37337 10.6363 4.42536 10.7849 4.66006 10.9204C4.89477 11.0559 5.0494 11.0266 5.16229 10.9741C5.30732 10.9066 5.42667 10.7731 5.48172 10.6778L9.04474 4.50643C9.19062 4.25376 9.33577 3.81768 9.29054 3.37424C9.24884 2.96546 9.04388 2.50812 8.4063 2.14001C7.76873 1.77191 7.27017 1.82308 6.89532 1.99136Z" fill="#FFB930"/>
</svg>
