<svg width="16" height="14" viewBox="0 0 16 14" fill="none" xmlns="http://www.w3.org/2000/svg">
<path fill-rule="evenodd" clip-rule="evenodd" d="M5.67159 2.53438L6.00978 1.66683H9.99014L10.3283 2.53438C10.5279 3.04634 11.0211 3.38344 11.5706 3.38344H13C13.5333 3.38344 14 3.83532 14 4.43339V11.2835C14 11.8816 13.5333 12.3335 13 12.3335H2.99996C2.46657 12.3335 1.99996 11.8816 1.99996 11.2835V4.43339C1.99996 3.83532 2.46657 3.38344 2.99996 3.38344H4.42931C4.9788 3.38344 5.47202 3.04634 5.67159 2.53438ZM5.66663 0.333496C5.30806 0.333496 5.00355 0.562082 4.88612 0.878263L4.42931 2.05011H2.99996C1.69335 2.05011 0.666626 3.13633 0.666626 4.43339V11.2835C0.666626 12.5806 1.69335 13.6668 2.99996 13.6668H13C14.3066 13.6668 15.3333 12.5806 15.3333 11.2835V4.43339C15.3333 3.13633 14.3066 2.05011 13 2.05011L11.5706 2.05011L11.1128 0.875714C10.9951 0.564512 10.6964 0.333496 10.3333 0.333496H5.66663ZM9.99996 7.66683C9.99996 8.7714 9.10453 9.66683 7.99996 9.66683C6.89539 9.66683 5.99996 8.7714 5.99996 7.66683C5.99996 6.56226 6.89539 5.66683 7.99996 5.66683C9.10453 5.66683 9.99996 6.56226 9.99996 7.66683ZM11.3333 7.66683C11.3333 9.50778 9.84091 11.0002 7.99996 11.0002C6.15901 11.0002 4.66663 9.50778 4.66663 7.66683C4.66663 5.82588 6.15901 4.3335 7.99996 4.3335C9.84091 4.3335 11.3333 5.82588 11.3333 7.66683Z" fill="#CF000E"/>
</svg>
