<svg width="150" height="28" viewBox="0 0 150 28" fill="none" xmlns="http://www.w3.org/2000/svg">
<g clip-path="url(#clip0_1330_43662)">
<path d="M22.6452 9.94785C22.4025 9.61281 22.0112 9.42245 21.5806 9.42245C21.0719 9.42245 20.5552 9.69657 20.1404 10.1991C17.98 12.7576 16.391 13.2982 15.4438 13.2982C14.755 13.2982 14.3245 13.0165 14.1601 12.8871L13.9801 12.7119C13.8392 12.552 13.5339 12.1104 13.5574 11.4022C13.5809 10.4885 14.1523 8.96558 16.7354 6.90204C17.2755 6.46801 17.5651 5.95022 17.5416 5.44005C17.526 5.04409 17.3224 4.68621 16.978 4.45778C16.7275 4.29026 16.4301 4.19888 16.1248 4.19888C15.5456 4.19888 14.9507 4.50346 14.348 5.08978C11.8979 7.47313 11.1856 9.84124 12.2423 11.9276C11.6083 11.623 10.943 11.4631 10.2541 11.4631C8.64165 11.4631 6.90393 12.3312 5.221 13.9683C3.87465 15.278 4.32865 16.207 4.58696 16.542C4.81396 16.8466 5.221 17.037 5.65934 17.037C6.18379 17.037 6.69258 16.7781 7.09179 16.2984C9.2522 13.7323 10.8412 13.1993 11.7883 13.1993C12.485 13.1993 12.9233 13.4886 13.0799 13.618L13.2521 13.7856C13.3852 13.9455 13.6904 14.3795 13.6748 15.0877C13.6513 16.0014 13.0877 17.5319 10.489 19.6031C9.83927 20.1209 9.7062 20.6386 9.7062 20.9813C9.7062 21.3849 9.89406 21.7656 10.2306 22.0321C10.5046 22.2453 10.8021 22.3519 11.1152 22.3519C11.6553 22.3519 12.2345 22.0473 12.8842 21.4153C15.3342 19.032 16.0387 16.6562 14.982 14.5775C15.616 14.8821 16.2814 15.042 16.978 15.042C18.614 15.042 20.3048 14.1968 22.0112 12.5368C23.0053 11.5393 23.2088 10.7169 22.6452 9.94785Z" fill="#9C9C9C"/>
<path d="M13.5887 0.0032959C6.09769 0.0032959 0 5.92739 0 13.2221C0 20.5168 6.09769 26.4409 13.5887 26.4409C21.0797 26.4409 27.1774 20.5092 27.1774 13.2221C27.1774 5.92739 21.0797 0.0032959 13.5887 0.0032959ZM13.5887 24.2555C7.33445 24.2555 2.24652 19.3061 2.24652 13.2221C2.24652 7.14572 7.33445 2.19628 13.5887 2.19628C19.8429 2.19628 24.9309 7.14572 24.9309 13.2221C24.9309 19.3061 19.8429 24.2555 13.5887 24.2555Z" fill="#9C9C9C"/>
<path d="M43.3256 22.5599C41.7836 22.5599 40.4294 22.4152 39.2631 22.1259C38.0968 21.8365 37.0166 21.471 36.0146 21.0522V16.3997H36.4843C37.4784 17.2297 38.5978 17.8541 39.811 18.311C41.0243 18.7374 42.2141 18.9658 43.3413 18.9658C43.6309 18.9658 44.0144 18.9278 44.4919 18.8745C44.9616 18.8135 45.353 18.7146 45.6269 18.5851C45.9713 18.4404 46.2766 18.2272 46.5193 17.9683C46.7619 17.7018 46.8793 17.3516 46.8793 16.9099C46.8793 16.4226 46.6836 16.019 46.2923 15.7144C45.8852 15.4098 45.4156 15.189 44.8676 15.0367C44.1866 14.8768 43.4587 14.7017 42.6759 14.5418C41.8853 14.3819 41.1652 14.1839 40.4842 13.9631C38.9343 13.4225 37.815 12.6991 37.134 11.8006C36.4608 10.9021 36.1164 9.76749 36.1164 8.40449C36.1164 6.56939 36.907 5.07694 38.5117 3.93476C40.1085 2.8002 42.0967 2.23672 44.4841 2.23672C45.6895 2.23672 46.8715 2.35094 48.077 2.59461C49.2511 2.83066 50.3078 3.15047 51.255 3.56165V8.0466H50.801C50.0573 7.42983 49.1415 6.89681 48.077 6.4704C46.9968 6.04399 45.8931 5.83078 44.7502 5.83078C44.3119 5.83078 43.9127 5.86885 43.5526 5.92215C43.2082 5.98307 42.8403 6.1049 42.4489 6.27242C42.1358 6.40948 41.8619 6.61508 41.6427 6.8892C41.4 7.17094 41.2904 7.4679 41.2904 7.80294C41.2904 8.31311 41.4705 8.70907 41.8384 9.00603C42.1984 9.29539 42.9029 9.5619 43.9518 9.79795C44.625 9.95785 45.2669 10.1025 45.9009 10.2396C46.5193 10.3766 47.1846 10.567 47.8969 10.8183C49.2902 11.3132 50.3313 11.9681 51.0123 12.7981C51.6855 13.628 52.0299 14.7322 52.0299 16.0875C52.0299 18.0369 51.2471 19.6054 49.666 20.7857C48.1239 21.966 45.9948 22.5599 43.3256 22.5599Z" fill="#9C9C9C"/>
<path d="M57.971 12.919C58.0258 11.9824 58.3154 11.2361 58.8399 10.7031C59.3565 10.1549 60.0767 9.87315 61.0003 9.87315C61.9083 9.87315 62.5971 10.132 63.0355 10.6498C63.466 11.1752 63.7165 11.9138 63.7321 12.9113H57.971V12.919ZM64.1627 22.4828C64.7184 22.4067 65.2507 22.3153 65.7673 22.1782C66.3231 22.0488 66.7692 21.9193 67.0902 21.7899C67.4111 21.6604 67.7633 21.5158 68.1547 21.3711V17.5638H67.6459C67.4424 17.7237 67.1684 17.8912 66.8397 18.074C66.5188 18.2796 66.143 18.4623 65.7595 18.6298C65.3055 18.8278 64.828 18.9801 64.2879 19.1096C63.7556 19.2238 63.2077 19.2847 62.6519 19.2847C62.0101 19.2847 61.4073 19.2238 60.8672 19.1096C60.3271 18.9801 59.8575 18.7898 59.4426 18.5156C59.0199 18.2415 58.6833 17.876 58.4329 17.4191C58.1824 16.9547 58.0337 16.376 57.9789 15.6906H68.4052V14.0307C68.4052 11.7539 67.8181 10.0102 66.6362 8.79189C65.462 7.56595 63.7087 6.95679 61.376 6.95679C58.8086 6.95679 56.8047 7.68017 55.3723 9.11931C53.9477 10.5585 53.2354 12.4773 53.2354 14.8987C53.2354 17.3582 54.0025 19.2542 55.5445 20.5868C57.0709 21.9193 59.2782 22.5894 62.1588 22.5894C62.9494 22.597 63.6069 22.5589 64.1627 22.4828Z" fill="#9C9C9C"/>
<path d="M74.4168 12.919C74.4716 11.9824 74.7691 11.2361 75.2857 10.7031C75.8101 10.1549 76.5303 9.87315 77.4618 9.87315C78.3698 9.87315 79.0508 10.132 79.4891 10.6498C79.9353 11.1752 80.1623 11.9138 80.1858 12.9113H74.4168V12.919ZM80.6084 22.4828C81.1564 22.4067 81.6965 22.3153 82.2209 22.1782C82.7689 22.0488 83.2072 21.9193 83.5281 21.7899C83.8491 21.6604 84.2091 21.5158 84.6005 21.3711V17.5638H84.0995C83.8882 17.7237 83.6221 17.8912 83.2933 18.074C82.9489 18.2796 82.5888 18.4623 82.2053 18.6298C81.7669 18.8278 81.2738 18.9801 80.7337 19.1096C80.2014 19.2238 79.6535 19.2847 79.0977 19.2847C78.4637 19.2847 77.861 19.2238 77.3209 19.1096C76.7808 18.9801 76.3033 18.7898 75.8884 18.5156C75.4735 18.2415 75.137 17.876 74.8708 17.4191C74.6203 16.9547 74.4638 16.376 74.4325 15.6906H84.8588V14.0307C84.8588 11.7539 84.2796 10.0102 83.0898 8.79189C81.9156 7.56595 80.1544 6.95679 77.8297 6.95679C75.2622 6.95679 73.2583 7.68017 71.8259 9.11931C70.4013 10.5585 69.689 12.4773 69.689 14.8987C69.689 17.3582 70.4561 19.2542 71.9903 20.5868C73.5245 21.9193 75.7319 22.5894 78.6124 22.5894C79.403 22.597 80.0683 22.5589 80.6084 22.4828Z" fill="#9C9C9C"/>
<path d="M95.1756 18.1908C94.7686 18.3431 94.3459 18.404 93.9154 18.404C93.344 18.404 92.8665 18.3203 92.5064 18.1451C92.1385 17.9624 91.8411 17.7187 91.6141 17.3837C91.3792 17.041 91.2148 16.6451 91.1366 16.1958C91.0426 15.7466 90.9957 15.1983 90.9957 14.5511C90.9957 13.2566 91.2853 12.2515 91.8724 11.5281C92.436 10.8123 93.3048 10.4392 94.4476 10.4392C94.7921 10.4392 95.1443 10.4849 95.4809 10.5458C95.8331 10.6296 96.1149 10.7134 96.3576 10.82V17.5817C95.9818 17.8405 95.5826 18.0538 95.1756 18.1908ZM101.093 7.42388H96.4985L96.3263 8.07112C95.8253 7.75131 95.2539 7.50003 94.6433 7.29443C94.0328 7.09646 93.3283 6.99747 92.5534 6.99747C91.6845 6.99747 90.8626 7.1726 90.0642 7.50764C89.2658 7.84268 88.5926 8.31478 88.0212 8.94679C87.442 9.60163 86.9723 10.3859 86.6514 11.3073C86.3226 12.2363 86.1426 13.2642 86.1426 14.4292C86.1426 16.9801 86.6827 18.8761 87.7551 20.1249C88.8353 21.3737 90.3538 21.9905 92.3342 21.9905C93.0778 21.9905 93.798 21.861 94.5024 21.5793C95.1991 21.3052 95.8331 20.9397 96.3654 20.4752V20.7569C96.3654 21.3965 96.3028 21.9143 96.201 22.3255C96.0914 22.7291 95.8957 23.1022 95.6296 23.3915C95.3556 23.6961 94.9564 23.9245 94.4085 24.0845C93.8684 24.2444 93.2031 24.3205 92.3968 24.3205C92.0133 24.3205 91.6219 24.29 91.254 24.2291C90.8783 24.1758 90.5025 24.0997 90.1112 24.0083C89.7902 23.9169 89.4693 23.8256 89.1405 23.719C88.8196 23.6276 88.5456 23.5286 88.303 23.4372H87.7551V27.1303C88.4282 27.2978 89.2188 27.4348 90.1268 27.5795C91.0426 27.709 92.0054 27.7699 93.0074 27.7699C94.2206 27.7699 95.3165 27.6481 96.2949 27.412C97.2812 27.1683 98.1188 26.7648 98.8311 26.2241C99.5356 25.6987 100.099 24.9449 100.506 23.9931C100.913 23.026 101.109 21.8686 101.109 20.5056V7.42388H101.093Z" fill="#9C9C9C"/>
<path d="M107.05 12.919C107.113 11.9824 107.395 11.2361 107.927 10.7031C108.443 10.1549 109.179 9.87315 110.095 9.87315C111.003 9.87315 111.676 10.132 112.122 10.6498C112.561 11.1752 112.788 11.9138 112.827 12.9113H107.05V12.919ZM113.25 22.4828C113.797 22.4067 114.33 22.3153 114.854 22.1782C115.41 22.0488 115.848 21.9193 116.169 21.7899C116.498 21.6604 116.85 21.5158 117.234 21.3711V17.5638H116.741C116.522 17.7237 116.263 17.8912 115.927 18.074C115.59 18.2796 115.238 18.4623 114.839 18.6298C114.4 18.8278 113.899 18.9801 113.367 19.1096C112.827 19.2238 112.287 19.2847 111.731 19.2847C111.097 19.2847 110.502 19.2238 109.962 19.1096C109.414 18.9801 108.929 18.7898 108.522 18.5156C108.115 18.2415 107.778 17.876 107.52 17.4191C107.269 16.9547 107.121 16.376 107.074 15.6906H117.492V14.0307C117.492 11.7539 116.905 10.0102 115.731 8.79189C114.557 7.56595 112.803 6.95679 110.471 6.95679C107.896 6.95679 105.899 7.68017 104.475 9.11931C103.042 10.5585 102.33 12.4773 102.33 14.8987C102.33 17.3582 103.097 19.2542 104.631 20.5868C106.166 21.9193 108.373 22.5894 111.261 22.5894C112.036 22.597 112.709 22.5589 113.25 22.4828Z" fill="#9C9C9C"/>
<path d="M133.711 22.2144H128.967V14.874C128.967 14.2724 128.944 13.6709 128.889 13.0846C128.85 12.4906 128.748 12.0414 128.615 11.7673C128.45 11.4398 128.223 11.2038 127.91 11.0591C127.597 10.9068 127.19 10.8383 126.674 10.8383C126.282 10.8383 125.883 10.9068 125.499 11.0439C125.1 11.1886 124.67 11.4094 124.216 11.714V22.2068H119.472V7.42698H124.216V9.03364C124.991 8.39402 125.742 7.90669 126.486 7.53358C127.221 7.16808 128.028 6.99295 128.92 6.99295C130.478 6.99295 131.66 7.47267 132.482 8.42448C133.296 9.3763 133.711 10.7621 133.711 12.5668V22.2144Z" fill="#9C9C9C"/>
<path d="M139.558 12.919C139.613 11.9824 139.902 11.2361 140.427 10.7031C140.943 10.1549 141.679 9.87315 142.603 9.87315C143.511 9.87315 144.184 10.132 144.63 10.6498C145.069 11.1752 145.296 11.9138 145.327 12.9113H139.558V12.919ZM145.765 22.4828C146.321 22.4067 146.845 22.3153 147.362 22.1782C147.918 22.0488 148.356 21.9193 148.685 21.7899C148.998 21.6604 149.358 21.5158 149.742 21.3711V17.5638H149.225C149.037 17.7237 148.755 17.8912 148.427 18.074C148.098 18.2796 147.738 18.4623 147.346 18.6298C146.9 18.8278 146.399 18.9801 145.875 19.1096C145.343 19.2238 144.795 19.2847 144.239 19.2847C143.597 19.2847 142.994 19.2238 142.454 19.1096C141.906 18.9801 141.437 18.7898 141.022 18.5156C140.607 18.2415 140.27 17.876 140.02 17.4191C139.769 16.9547 139.621 16.376 139.574 15.6906H149.992V14.0307C149.992 11.7539 149.413 10.0102 148.223 8.79189C147.049 7.56595 145.296 6.95679 142.963 6.95679C140.388 6.95679 138.392 7.68017 136.967 9.11931C135.527 10.5585 134.838 12.4773 134.838 14.8987C134.838 17.3582 135.597 19.2542 137.124 20.5868C138.666 21.9193 140.873 22.5894 143.754 22.5894C144.552 22.597 145.209 22.5589 145.765 22.4828Z" fill="#9C9C9C"/>
</g>
<defs>
<clipPath id="clip0_1330_43662">
<rect width="150" height="27.7778" fill="white" transform="translate(0 -0.000183105)"/>
</clipPath>
</defs>
</svg>
