<svg width="20" height="26" viewBox="0 0 20 26" fill="none" xmlns="http://www.w3.org/2000/svg">
<path fill-rule="evenodd" clip-rule="evenodd" d="M11.6117 3.18445C10.8797 3.51303 10.3306 4.13177 10.068 4.58658L2.86797 17.0573C2.49111 17.7101 2.11794 18.8263 2.23513 19.9751C2.34595 21.0614 2.89828 22.2545 4.52223 23.1921C6.14618 24.1297 7.45556 24.0115 8.45178 23.5643C9.50522 23.0914 10.2853 22.2101 10.6622 21.5573L17.8622 9.08658C18.1383 8.60829 18.7499 8.44441 19.2282 8.72055C19.7065 8.9967 19.8704 9.60829 19.5943 10.0866L12.3943 22.5573C11.8568 23.4882 10.7892 24.7073 9.27085 25.3889C7.69527 26.0962 5.70879 26.1866 3.52223 24.9241C1.33567 23.6617 0.42072 21.8962 0.245453 20.1781C0.0765525 18.5223 0.598506 16.9882 1.13592 16.0573L8.33592 3.58658C8.75906 2.85369 9.59571 1.89715 10.7926 1.35986C12.0467 0.796891 13.6212 0.732566 15.3314 1.71998C17.0417 2.70739 17.7732 4.1031 17.9127 5.47067C18.0459 6.77585 17.6358 7.97869 17.2127 8.71158L10.7992 19.82C10.5454 20.2597 10.0522 20.8333 9.3362 21.1666C8.56238 21.5267 7.59469 21.5698 6.58821 20.9887C5.58173 20.4076 5.13518 19.548 5.0602 18.6978C4.99082 17.9111 5.24097 17.1972 5.49483 16.7575L10.0831 8.81044C10.3592 8.33214 10.9708 8.16827 11.4491 8.44441C11.9274 8.72055 12.0913 9.33214 11.8151 9.81044L7.22688 17.7575C7.12781 17.9291 7.02717 18.2353 7.05246 18.5221C7.07215 18.7454 7.16575 19.0127 7.58821 19.2567C8.01068 19.5006 8.28901 19.4479 8.49223 19.3534C8.75328 19.2318 8.96811 18.9916 9.06719 18.82L15.4806 7.71158C15.7432 7.25677 16.0045 6.47183 15.9231 5.67364C15.848 4.93785 15.4791 4.11462 14.3314 3.45203C13.1838 2.78944 12.2864 2.88156 11.6117 3.18445Z" fill="black"/>
</svg>
