<svg width="20" height="20" viewBox="0 0 20 20" fill="none" xmlns="http://www.w3.org/2000/svg">
<path fill-rule="evenodd" clip-rule="evenodd" d="M4.16667 0.166504C4.6269 0.166504 5 0.5396 5 0.999837V2.6665H15V0.999837C15 0.5396 15.3731 0.166504 15.8333 0.166504C16.2936 0.166504 16.6667 0.5396 16.6667 0.999837V2.6665H19.1667C19.6269 2.6665 20 3.0396 20 3.49984V18.4998C20 18.9601 19.6269 19.3332 19.1667 19.3332H0.833334C0.373096 19.3332 0 18.9601 0 18.4998V3.49984C0 3.0396 0.373096 2.6665 0.833333 2.6665H3.33333V0.999837C3.33333 0.5396 3.70643 0.166504 4.16667 0.166504ZM3.33333 5.1665V4.33317H1.66667V17.6665H18.3333V4.33317H16.6667V5.1665C16.6667 5.62674 16.2936 5.99984 15.8333 5.99984C15.3731 5.99984 15 5.62674 15 5.1665V4.33317H5V5.1665C5 5.62674 4.6269 5.99984 4.16667 5.99984C3.70643 5.99984 3.33333 5.62674 3.33333 5.1665ZM5 12.6665C5.92048 12.6665 6.66667 11.9203 6.66667 10.9998C6.66667 10.0794 5.92048 9.33317 5 9.33317C4.07953 9.33317 3.33333 10.0794 3.33333 10.9998C3.33333 11.9203 4.07953 12.6665 5 12.6665ZM11.6667 10.9998C11.6667 11.9203 10.9205 12.6665 10 12.6665C9.07952 12.6665 8.33333 11.9203 8.33333 10.9998C8.33333 10.0794 9.07952 9.33317 10 9.33317C10.9205 9.33317 11.6667 10.0794 11.6667 10.9998ZM15 12.6665C15.9205 12.6665 16.6667 11.9203 16.6667 10.9998C16.6667 10.0794 15.9205 9.33317 15 9.33317C14.0795 9.33317 13.3333 10.0794 13.3333 10.9998C13.3333 11.9203 14.0795 12.6665 15 12.6665Z" fill="#9C9C9C"/>
</svg>
