<svg width="24" height="24" viewBox="0 0 24 24" fill="none" xmlns="http://www.w3.org/2000/svg">
<g clip-path="url(#clip0)">
<path d="M22.9115 11.4282H18.5476C17.9457 11.4282 17.4563 11.9397 17.4563 12.5714C17.4563 13.2031 17.9446 13.7146 18.5476 13.7146H22.9115C23.5134 13.7146 24.0028 13.2031 24.0028 12.5714C24.0028 11.9397 23.5134 11.4282 22.9115 11.4282Z" fill="#9C9C9C"/>
<path d="M5.4557 11.4282H1.09176C0.488746 11.4282 0.000488281 11.9397 0.000488281 12.5714C0.000488281 13.2031 0.488746 13.7146 1.09176 13.7146H5.4557C6.05758 13.7146 6.54697 13.2031 6.54697 12.5714C6.54697 11.9397 6.05758 11.4282 5.4557 11.4282Z" fill="#9C9C9C"/>
<path d="M18.9428 3.68226L15.8569 6.91503C15.4305 7.3617 15.4305 8.08533 15.8569 8.53082C16.0695 8.75357 16.3497 8.86553 16.6287 8.86553C16.9077 8.86553 17.1867 8.75357 17.4004 8.53082L20.4863 5.29806C20.9127 4.85139 20.9127 4.12776 20.4863 3.68226C20.0588 3.23677 19.3681 3.23677 18.9428 3.68226Z" fill="#9C9C9C"/>
<path d="M12.0019 19.4282C11.3989 19.4282 10.9106 19.9397 10.9106 20.5714V22.8566C10.9106 23.4871 11.3989 23.9998 12.0019 23.9998C12.6049 23.9998 13.0932 23.4883 13.0932 22.8566V20.5714C13.0921 19.9397 12.6038 19.4282 12.0019 19.4282Z" fill="#9C9C9C"/>
<path d="M6.60151 16.6116L3.51559 19.8444C3.08921 20.291 3.08921 21.0147 3.51559 21.4602C3.72822 21.6829 4.00722 21.7949 4.28735 21.7949C4.56635 21.7949 4.84536 21.6829 5.05911 21.4602L8.14503 18.2274C8.57141 17.7807 8.57141 17.0571 8.14503 16.6116C7.71865 16.1649 7.02789 16.1649 6.60151 16.6116Z" fill="#9C9C9C"/>
<path d="M12.0017 0C11.3987 0 10.9104 0.511491 10.9104 1.14319V5.71479C10.9104 6.34532 11.3987 6.85799 12.0017 6.85799C12.6047 6.85799 13.0929 6.3465 13.0929 5.71479V1.14319C13.0918 0.511491 12.6036 0 12.0017 0Z" fill="#9C9C9C"/>
<path d="M5.05683 3.68193C4.63045 3.23526 3.93969 3.23526 3.51443 3.68193C3.08918 4.1286 3.08805 4.85223 3.51443 5.29772L6.60036 8.53048C6.81298 8.75323 7.09311 8.86519 7.37212 8.86519C7.65112 8.86519 7.93013 8.75323 8.14388 8.53048C8.57026 8.08381 8.57026 7.36018 8.14388 6.91469L5.05683 3.68193Z" fill="#9C9C9C"/>
</g>
<defs>
<clipPath id="clip0">
<rect width="24" height="24" fill="white"/>
</clipPath>
</defs>
</svg>
