<svg width="14" height="14" viewBox="0 0 14 14" fill="none" xmlns="http://www.w3.org/2000/svg">
<path fill-rule="evenodd" clip-rule="evenodd" d="M3.11115 0.777832C3.41798 0.777832 3.66671 1.02656 3.66671 1.33339V2.4445H10.3334V1.33339C10.3334 1.02656 10.5821 0.777832 10.8889 0.777832C11.1958 0.777832 11.4445 1.02656 11.4445 1.33339V2.4445H13.1112C13.418 2.4445 13.6667 2.69323 13.6667 3.00005V13.0001C13.6667 13.3069 13.418 13.5556 13.1112 13.5556H0.88893C0.582105 13.5556 0.333374 13.3069 0.333374 13.0001V3.00005C0.333374 2.69323 0.582105 2.4445 0.88893 2.4445H2.5556V1.33339C2.5556 1.02656 2.80433 0.777832 3.11115 0.777832ZM2.5556 4.11117V3.55561H1.44449V12.4445H12.5556V3.55561H11.4445V4.11117C11.4445 4.41799 11.1958 4.66672 10.8889 4.66672C10.5821 4.66672 10.3334 4.41799 10.3334 4.11117V3.55561H3.66671V4.11117C3.66671 4.41799 3.41798 4.66672 3.11115 4.66672C2.80433 4.66672 2.5556 4.41799 2.5556 4.11117ZM3.66671 9.11117C4.28036 9.11117 4.77782 8.6137 4.77782 8.00005C4.77782 7.3864 4.28036 6.88894 3.66671 6.88894C3.05306 6.88894 2.5556 7.3864 2.5556 8.00005C2.5556 8.6137 3.05306 9.11117 3.66671 9.11117ZM8.11115 8.00005C8.11115 8.6137 7.61369 9.11117 7.00004 9.11117C6.38639 9.11117 5.88893 8.6137 5.88893 8.00005C5.88893 7.3864 6.38639 6.88894 7.00004 6.88894C7.61369 6.88894 8.11115 7.3864 8.11115 8.00005ZM10.3334 9.11117C10.947 9.11117 11.4445 8.6137 11.4445 8.00005C11.4445 7.3864 10.947 6.88894 10.3334 6.88894C9.71972 6.88894 9.22226 7.3864 9.22226 8.00005C9.22226 8.6137 9.71972 9.11117 10.3334 9.11117Z" fill="black"/>
</svg>
