<svg width="145" height="27" viewBox="0 0 145 27" fill="none" xmlns="http://www.w3.org/2000/svg">
<g clip-path="url(#clip0)">
<path d="M21.8901 10.6661C21.6556 10.3405 21.2772 10.1554 20.8611 10.1554C20.3692 10.1554 19.8698 10.4219 19.4688 10.9104C17.3804 13.3972 15.8444 13.9227 14.9288 13.9227C14.2629 13.9227 13.8468 13.6488 13.6879 13.523L13.5138 13.3528C13.3776 13.1974 13.0825 12.7681 13.1052 12.0798C13.1279 11.1916 13.6803 9.71135 16.1773 7.70559C16.6994 7.28372 16.9794 6.78043 16.9567 6.28454C16.9415 5.89967 16.7448 5.55181 16.4119 5.32977C16.1697 5.16694 15.8822 5.07812 15.5871 5.07812C15.0272 5.07812 14.4521 5.37418 13.8695 5.94408C11.5011 8.26069 10.8125 10.5625 11.834 12.5905C11.2211 12.2944 10.578 12.139 9.91212 12.139C8.35338 12.139 6.67358 12.9827 5.04675 14.574C3.74528 15.847 4.18415 16.75 4.43385 17.0757C4.65328 17.3717 5.04675 17.5567 5.47048 17.5567C5.97745 17.5567 6.46928 17.3051 6.85518 16.8388C8.94358 14.3446 10.4796 13.8265 11.3952 13.8265C12.0686 13.8265 12.4923 14.1077 12.6437 14.2336L12.8101 14.3964C12.9388 14.5518 13.2339 14.9737 13.2187 15.662C13.196 16.5502 12.6512 18.0378 10.1391 20.051C9.51108 20.5543 9.38245 21.0576 9.38245 21.3906C9.38245 21.7829 9.56405 22.153 9.88942 22.412C10.1542 22.6192 10.4418 22.7229 10.7444 22.7229C11.2665 22.7229 11.8265 22.4268 12.4545 21.8125C14.8229 19.4959 15.5039 17.1867 14.4824 15.1661C15.0953 15.4622 15.7384 15.6176 16.4119 15.6176C17.9933 15.6176 19.6277 14.7961 21.2772 13.1826C22.2382 12.213 22.4349 11.4137 21.8901 10.6661Z" fill="#CF000E"/>
<path d="M13.1357 1C5.89443 1 0 6.75822 0 13.8487C0 20.9391 5.89443 26.6974 13.1357 26.6974C20.377 26.6974 26.2715 20.9317 26.2715 13.8487C26.2715 6.75822 20.377 1 13.1357 1ZM13.1357 24.5732C7.08996 24.5732 2.17163 19.7623 2.17163 13.8487C2.17163 7.94243 7.08996 3.13158 13.1357 3.13158C19.1815 3.13158 24.0998 7.94243 24.0998 13.8487C24.0998 19.7623 19.1815 24.5732 13.1357 24.5732Z" fill="black"/>
<path d="M41.8817 22.9299C40.3911 22.9299 39.0821 22.7893 37.9546 22.508C36.8272 22.2268 35.783 21.8715 34.8145 21.4644V16.9422H35.2685C36.2294 17.749 37.3115 18.3559 38.4843 18.8C39.6571 19.2144 40.8073 19.4365 41.8969 19.4365C42.1768 19.4365 42.5476 19.3995 43.0092 19.3477C43.4632 19.2884 43.8415 19.1922 44.1063 19.0664C44.4393 18.9258 44.7344 18.7185 44.9689 18.4669C45.2035 18.2079 45.317 17.8674 45.317 17.4381C45.317 16.9644 45.1278 16.5722 44.7495 16.2761C44.356 15.9801 43.902 15.7654 43.3724 15.6174C42.7141 15.462 42.0104 15.2917 41.2537 15.1363C40.4895 14.9809 39.7933 14.7884 39.135 14.5738C37.6368 14.0483 36.5548 13.3452 35.8965 12.4718C35.2458 11.5985 34.9128 10.4957 34.9128 9.17085C34.9128 7.38713 35.6771 5.93647 37.2282 4.82627C38.7718 3.72348 40.6938 3.17578 43.0016 3.17578C44.1669 3.17578 45.3094 3.2868 46.4747 3.52364C47.6097 3.75308 48.6312 4.06394 49.5468 4.46361V8.82299H49.1079C48.3891 8.22348 47.5038 7.70539 46.4747 7.29091C45.4305 6.87644 44.3636 6.6692 43.2589 6.6692C42.8351 6.6692 42.4492 6.70621 42.1012 6.75802C41.7682 6.81723 41.4126 6.93565 41.0343 7.09848C40.7316 7.2317 40.4668 7.43154 40.2549 7.69799C40.0203 7.97183 39.9144 8.26049 39.9144 8.58614C39.9144 9.08203 40.0884 9.4669 40.4441 9.75555C40.7921 10.0368 41.4731 10.2958 42.4871 10.5253C43.1378 10.6807 43.7583 10.8213 44.3712 10.9546C44.9689 11.0878 45.6121 11.2728 46.3007 11.5171C47.6475 11.9982 48.6539 12.6347 49.3122 13.4414C49.9629 14.2481 50.2959 15.3213 50.2959 16.6388C50.2959 18.5335 49.5392 20.0582 48.0107 21.2054C46.5201 22.3526 44.462 22.9299 41.8817 22.9299Z" fill="black"/>
<path d="M56.0388 13.5526C56.0917 12.6422 56.3717 11.9169 56.8787 11.3988C57.3781 10.8659 58.0742 10.592 58.9671 10.592C59.8448 10.592 60.5107 10.8437 60.9344 11.347C61.3506 11.8577 61.5927 12.5756 61.6078 13.5452H56.0388V13.5526ZM62.024 22.8486C62.5612 22.7746 63.0758 22.6858 63.5752 22.5526C64.1124 22.4267 64.5437 22.3009 64.8539 22.1751C65.1642 22.0493 65.5047 21.9086 65.883 21.768V18.0674H65.3912C65.1944 18.2228 64.9296 18.3856 64.6118 18.5632C64.3016 18.7631 63.9384 18.9407 63.5676 19.1035C63.1287 19.296 62.6672 19.444 62.1451 19.5698C61.6305 19.6808 61.1009 19.7401 60.5636 19.7401C59.9432 19.7401 59.3605 19.6808 58.8384 19.5698C58.3163 19.444 57.8623 19.259 57.4613 18.9925C57.0527 18.7261 56.7273 18.3708 56.4852 17.9267C56.2431 17.4753 56.0993 16.9128 56.0463 16.2466H66.1251V14.6331C66.1251 12.4202 65.5576 10.7253 64.4151 9.54104C63.2801 8.34943 61.5851 7.75732 59.3303 7.75732C56.8484 7.75732 54.9113 8.46045 53.5266 9.8593C52.1495 11.2581 51.4609 13.1233 51.4609 15.4769C51.4609 17.8675 52.2025 19.7105 53.6931 21.0057C55.1686 22.3009 57.3024 22.9522 60.0869 22.9522C60.8512 22.9596 61.4868 22.9226 62.024 22.8486Z" fill="black"/>
<path d="M71.9365 13.5526C71.9894 12.6422 72.277 11.9169 72.7764 11.3988C73.2833 10.8659 73.9795 10.592 74.8799 10.592C75.7576 10.592 76.4159 10.8437 76.8397 11.347C77.271 11.8577 77.4904 12.5756 77.5131 13.5452H71.9365V13.5526ZM77.9217 22.8486C78.4514 22.7746 78.9735 22.6858 79.4804 22.5526C80.0101 22.4267 80.4338 22.3009 80.7441 22.1751C81.0543 22.0493 81.4024 21.9086 81.7807 21.768V18.0674H81.2964C81.0921 18.2228 80.8349 18.3856 80.5171 18.5632C80.1841 18.7631 79.8361 18.9407 79.4653 19.1035C79.0416 19.296 78.5649 19.444 78.0428 19.5698C77.5282 19.6808 76.9986 19.7401 76.4613 19.7401C75.8484 19.7401 75.2658 19.6808 74.7437 19.5698C74.2216 19.444 73.76 19.259 73.359 18.9925C72.958 18.7261 72.6326 18.3708 72.3753 17.9267C72.1332 17.4753 71.9819 16.9128 71.9516 16.2466H82.0304V14.6331C82.0304 12.4202 81.4705 10.7253 80.3203 9.54104C79.1853 8.34943 77.4828 7.75732 75.2355 7.75732C72.7537 7.75732 70.8166 8.46045 69.4319 9.8593C68.0548 11.2581 67.3662 13.1233 67.3662 15.4769C67.3662 17.8675 68.1077 19.7105 69.5908 21.0057C71.0739 22.3009 73.2077 22.9522 75.9922 22.9522C76.7564 22.9596 77.3996 22.9226 77.9217 22.8486Z" fill="black"/>
<path d="M92.0029 18.6817C91.6095 18.8297 91.2009 18.8889 90.7847 18.8889C90.2323 18.8889 89.7708 18.8075 89.4227 18.6373C89.0671 18.4597 88.7795 18.2228 88.5601 17.8972C88.3331 17.5641 88.1742 17.1792 88.0985 16.7425C88.0077 16.3059 87.9623 15.773 87.9623 15.1439C87.9623 13.8856 88.2423 12.9087 88.8098 12.2055C89.3546 11.5098 90.1945 11.1472 91.2992 11.1472C91.6322 11.1472 91.9727 11.1916 92.298 11.2508C92.6385 11.3322 92.9109 11.4136 93.1455 11.5172V18.0896C92.7823 18.3412 92.3964 18.5485 92.0029 18.6817ZM97.7233 8.21623H93.2817L93.1152 8.84534C92.631 8.53449 92.0786 8.29024 91.4884 8.09041C90.8982 7.89798 90.2172 7.80176 89.4681 7.80176C88.6282 7.80176 87.8337 7.97199 87.0619 8.29765C86.2901 8.6233 85.6394 9.08219 85.087 9.6965C84.5271 10.333 84.0731 11.0953 83.7628 11.9909C83.445 12.8939 83.271 13.893 83.271 15.0254C83.271 17.5049 83.7931 19.3478 84.8297 20.5616C85.8739 21.7754 87.3419 22.3749 89.2562 22.3749C89.9751 22.3749 90.6712 22.2491 91.3522 21.9753C92.0256 21.7088 92.6385 21.3536 93.1531 20.9021V21.1759C93.1531 21.7976 93.0925 22.3009 92.9942 22.7006C92.8882 23.0929 92.6991 23.4555 92.4418 23.7368C92.177 24.0328 91.7911 24.2549 91.2614 24.4103C90.7393 24.5657 90.0961 24.6398 89.3168 24.6398C88.946 24.6398 88.5677 24.6101 88.212 24.5509C87.8488 24.4991 87.4856 24.4251 87.1073 24.3363C86.7971 24.2475 86.4868 24.1587 86.169 24.055C85.8588 23.9662 85.594 23.87 85.3594 23.7812H84.8297V27.3708C85.4805 27.5337 86.2447 27.6669 87.1224 27.8075C88.0077 27.9333 88.9384 27.9925 89.907 27.9925C91.0798 27.9925 92.1391 27.8741 93.085 27.6447C94.0384 27.4078 94.848 27.0156 95.5366 26.4901C96.2176 25.9794 96.7624 25.2467 97.1558 24.3215C97.5493 23.3815 97.7385 22.2565 97.7385 20.9317V8.21623H97.7233Z" fill="black"/>
<path d="M103.482 13.5526C103.542 12.6422 103.815 11.9169 104.329 11.3988C104.829 10.8659 105.54 10.592 106.425 10.592C107.303 10.592 107.954 10.8437 108.385 11.347C108.809 11.8577 109.028 12.5756 109.066 13.5452H103.482V13.5526ZM109.474 22.8486C110.004 22.7746 110.519 22.6858 111.026 22.5526C111.563 22.4267 111.987 22.3009 112.297 22.1751C112.615 22.0493 112.955 21.9086 113.326 21.768V18.0674H112.849C112.637 18.2228 112.388 18.3856 112.062 18.5632C111.737 18.7631 111.396 18.9407 111.01 19.1035C110.587 19.296 110.102 19.444 109.588 19.5698C109.066 19.6808 108.544 19.7401 108.007 19.7401C107.394 19.7401 106.819 19.6808 106.296 19.5698C105.767 19.444 105.298 19.259 104.904 18.9925C104.511 18.7261 104.185 18.3708 103.936 17.9267C103.694 17.4753 103.55 16.9128 103.504 16.2466H113.576V14.6331C113.576 12.4202 113.008 10.7253 111.873 9.54104C110.738 8.34943 109.043 7.75732 106.788 7.75732C104.299 7.75732 102.369 8.46045 100.992 9.8593C99.6075 11.2581 98.9189 13.1233 98.9189 15.4769C98.9189 17.8675 99.6605 19.7105 101.144 21.0057C102.627 22.3009 104.76 22.9522 107.553 22.9522C108.302 22.9596 108.952 22.9226 109.474 22.8486Z" fill="black"/>
<path d="M129.254 22.5897H124.669V15.4548C124.669 14.8701 124.646 14.2854 124.593 13.7155C124.555 13.1382 124.457 12.7015 124.328 12.4351C124.169 12.1168 123.95 11.8874 123.647 11.7467C123.344 11.5987 122.951 11.5321 122.452 11.5321C122.073 11.5321 121.687 11.5987 121.317 11.7319C120.931 11.8726 120.515 12.0872 120.076 12.3832V22.5823H115.49V8.21631H120.076V9.77799C120.825 9.15628 121.551 8.68259 122.27 8.31993C122.981 7.96466 123.761 7.79443 124.623 7.79443C126.129 7.79443 127.272 8.26072 128.066 9.18588C128.853 10.111 129.254 11.4581 129.254 13.2122V22.5897Z" fill="black"/>
<path d="M134.906 13.5526C134.959 12.6422 135.239 11.9169 135.746 11.3988C136.245 10.8659 136.957 10.592 137.849 10.592C138.727 10.592 139.378 10.8437 139.809 11.347C140.233 11.8577 140.452 12.5756 140.483 13.5452H134.906V13.5526ZM140.906 22.8486C141.444 22.7746 141.951 22.6858 142.45 22.5526C142.987 22.4267 143.411 22.3009 143.729 22.1751C144.031 22.0493 144.379 21.9086 144.75 21.768V18.0674H144.251C144.069 18.2228 143.797 18.3856 143.479 18.5632C143.161 18.7631 142.813 18.9407 142.435 19.1035C142.004 19.296 141.519 19.444 141.012 19.5698C140.498 19.6808 139.968 19.7401 139.431 19.7401C138.81 19.7401 138.228 19.6808 137.706 19.5698C137.176 19.444 136.722 19.259 136.321 18.9925C135.92 18.7261 135.595 18.3708 135.352 17.9267C135.11 17.4753 134.966 16.9128 134.921 16.2466H144.992V14.6331C144.992 12.4202 144.432 10.7253 143.282 9.54104C142.147 8.34943 140.452 7.75732 138.197 7.75732C135.708 7.75732 133.779 8.46045 132.401 9.8593C131.009 11.2581 130.343 13.1233 130.343 15.4769C130.343 17.8675 131.077 19.7105 132.553 21.0057C134.043 22.3009 136.177 22.9522 138.962 22.9522C139.733 22.9596 140.369 22.9226 140.906 22.8486Z" fill="black"/>
</g>
<defs>
<clipPath id="clip0">
<rect width="145" height="27" fill="white"/>
</clipPath>
</defs>
</svg>
