<svg width="28" height="27" viewBox="0 0 28 27" fill="none" xmlns="http://www.w3.org/2000/svg">
<path d="M22.7863 10.1027C22.5421 9.76378 22.1483 9.57118 21.7151 9.57118C21.2032 9.57118 20.6834 9.84852 20.266 10.357C18.0922 12.9454 16.4934 13.4924 15.5404 13.4924C14.8474 13.4924 14.4142 13.2074 14.2488 13.0764L14.0676 12.8992C13.9259 12.7374 13.6187 12.2906 13.6423 11.5742C13.666 10.6497 14.2409 9.10895 16.84 7.02122C17.3834 6.58211 17.6748 6.05825 17.6512 5.5421C17.6354 5.1415 17.4307 4.77942 17.0841 4.54831C16.8321 4.37882 16.5328 4.28638 16.2256 4.28638C15.6428 4.28638 15.0443 4.59453 14.4378 5.18772C11.9727 7.59901 11.2559 9.99489 12.3192 12.1057C11.6812 11.7976 11.0118 11.6358 10.3187 11.6358C8.69628 11.6358 6.94783 12.514 5.25451 14.1703C3.89986 15.4954 4.35666 16.4353 4.61656 16.7742C4.84496 17.0824 5.25451 17.275 5.69556 17.275C6.22325 17.275 6.73518 17.013 7.13685 16.5277C9.3106 13.9315 10.9094 13.3923 11.8624 13.3923C12.5633 13.3923 13.0044 13.685 13.1619 13.816L13.3352 13.9855C13.4691 14.1472 13.7762 14.5864 13.7605 15.3028C13.7369 16.2273 13.1698 17.7757 10.555 19.8712C9.90129 20.395 9.7674 20.9189 9.7674 21.2655C9.7674 21.6738 9.95642 22.059 10.2951 22.3287C10.5707 22.5444 10.87 22.6522 11.1851 22.6522C11.7285 22.6522 12.3113 22.3441 12.965 21.7047C15.4302 19.2934 16.139 16.8898 15.0758 14.7866C15.7137 15.0948 16.3832 15.2566 17.0841 15.2566C18.7302 15.2566 20.4314 14.4015 22.1483 12.722C23.1486 11.7128 23.3533 10.8808 22.7863 10.1027Z" fill="#CF000E"/>
<path d="M13.6745 0.0412598C6.13728 0.0412598 0.00195312 6.03481 0.00195312 13.415C0.00195312 20.7953 6.13728 26.7888 13.6745 26.7888C21.2118 26.7888 27.3471 20.7876 27.3471 13.415C27.3471 6.03481 21.2118 0.0412598 13.6745 0.0412598ZM13.6745 24.5778C7.38167 24.5778 2.26234 19.5704 2.26234 13.415C2.26234 7.26742 7.38167 2.25995 13.6745 2.25995C19.9674 2.25995 25.0867 7.26742 25.0867 13.415C25.0867 19.5704 19.9674 24.5778 13.6745 24.5778Z" fill="black"/>
</svg>
