<svg width="130" height="130" viewBox="0 0 130 130" fill="none" xmlns="http://www.w3.org/2000/svg">
<circle cx="65" cy="65" r="65" fill="#1EC89B" fill-opacity="0.1"/>
<circle cx="65" cy="65" r="50" fill="#1EC89B"/>
<path fill-rule="evenodd" clip-rule="evenodd" d="M36.4052 86.7517C34.005 80.529 40.0043 80.6402 38.9377 57.7497C37.8721 34.8602 63.0654 33.6706 63.0654 33.6706L65 33.6667L66.9345 33.6706C66.9345 33.6706 92.1289 34.8602 91.0623 57.7497C89.9957 80.6402 95.995 80.529 93.5948 86.7517C93.5948 86.7517 90.0559 94.3333 83.4926 94.3333C76.9294 94.3333 72.5305 86.7517 72.5305 86.7517L55.2118 86.2282C55.2118 86.2282 52.8017 94.3333 46.9358 94.3333C41.071 94.3333 36.4052 86.7517 36.4052 86.7517" fill="#402210"/>
<path fill-rule="evenodd" clip-rule="evenodd" d="M46.5088 60.8538L46.9167 72.516C46.9167 75.3646 46.9167 77.5118 48.648 80.5227C51.0562 84.7105 57.1297 90.15 65.0004 90.15C72.1285 90.15 75.8832 86.1344 79.0781 82.5763C81.5896 79.7798 81.8758 76.2355 82.1046 72.516C82.3675 68.2268 83.7128 62.0001 82.9 58.2531C81.5665 52.1091 76.0277 46.2268 65.0004 46.2268C53.973 46.2268 46.5088 53.5202 46.5088 60.8538Z" fill="#ECDECE"/>
<path d="M45.1667 65.1667C45.1667 58.75 46.1389 51.75 47.5 47.6667L61.5 40.0833L77.8333 43L86 51.75L84.8333 68.6667C84.4444 67.8889 83.4315 64.7575 79.5833 62.8333C73.75 59.9167 73.3611 55.25 72.5833 52.9167C70.8333 52.9167 71.3051 55.6893 66.75 59.3333C60.9167 64 54.5 59.3333 45.1667 65.1667Z" fill="#402210"/>
<path d="M63.4656 68.7113L62.3327 69.9708L63.4656 70.9341" stroke="#402210" stroke-linecap="round" stroke-linejoin="round"/>
<path d="M58.8553 75.3638C61.7752 76.885 65.265 76.9273 68.222 75.4769L68.4538 75.3638" stroke="#402210" stroke-linecap="round" stroke-linejoin="round"/>
<path fill-rule="evenodd" clip-rule="evenodd" d="M81.3278 76.1624C81.3278 78.6174 79.2989 80.608 76.7954 80.608C74.292 80.608 72.2641 78.6174 72.2641 76.1624C72.2641 73.7083 74.292 71.7177 76.7954 71.7177C79.2989 71.7177 81.3278 73.7083 81.3278 76.1624" fill="#EACAC2"/>
<path fill-rule="evenodd" clip-rule="evenodd" d="M57.4785 76.1624C57.4785 78.6174 55.4496 80.608 52.9452 80.608C50.4427 80.608 48.4138 78.6174 48.4138 76.1624C48.4138 73.7083 50.4427 71.7177 52.9452 71.7177C55.4496 71.7177 57.4785 73.7083 57.4785 76.1624" fill="#EACAC2"/>
<path fill-rule="evenodd" clip-rule="evenodd" d="M73.1184 65.9554C73.1184 66.6589 72.5364 67.2296 71.818 67.2296C71.1006 67.2296 70.5186 66.6589 70.5186 65.9554C70.5186 65.2508 71.1006 64.6801 71.818 64.6801C72.5364 64.6801 73.1184 65.2508 73.1184 65.9554" fill="#402210"/>
<path fill-rule="evenodd" clip-rule="evenodd" d="M57.7656 65.9554C57.7656 66.6589 57.1846 67.2296 56.4662 67.2296C55.7488 67.2296 55.1668 66.6589 55.1668 65.9554C55.1668 65.2508 55.7488 64.6801 56.4662 64.6801C57.1846 64.6801 57.7656 65.2508 57.7656 65.9554" fill="#402210"/>
</svg>
