<svg width="375" height="812" viewBox="0 0 375 812" fill="none" xmlns="http://www.w3.org/2000/svg">
<g clip-path="url(#clip0)">
<rect width="375" height="812" fill="#DCF4FF"/>
<ellipse cx="111.5" cy="746" rx="167.5" ry="168" fill="white"/>
<circle cx="34" cy="619" r="90" fill="white"/>
<circle cx="113" cy="435" r="8" fill="white"/>
<circle cx="82" cy="481" r="18" fill="white"/>
<ellipse cx="268.5" cy="635" rx="84.5" ry="84" fill="white"/>
<circle cx="355.5" cy="773.5" r="113.5" fill="white"/>
<path fill-rule="evenodd" clip-rule="evenodd" d="M173.65 342.085C169.327 347.937 165.337 351.466 163.743 350.506C162.15 349.546 163.405 344.369 166.559 337.812C159.352 341.093 153.583 342.371 152.632 340.653C151.431 338.482 158.375 332.353 168.141 326.962C170.354 325.74 172.522 324.661 174.566 323.749C175.473 318.628 176.87 315.305 178.379 315.334C179.144 315.348 179.848 316.222 180.451 317.75C182.283 316.129 183.758 315.416 184.586 315.915C185.414 316.414 185.473 318.051 184.896 320.428C186.528 320.247 187.63 320.461 188 321.13C188.731 322.451 186.445 325.239 182.342 328.434C182.49 330.667 182.549 333.088 182.504 335.616C182.301 346.769 180.127 355.773 177.647 355.725C175.683 355.687 174.117 349.99 173.65 342.085Z" fill="#27C527"/>
<path fill-rule="evenodd" clip-rule="evenodd" d="M147.427 350.863C142.254 352.142 137.892 355.359 135.144 359.919C129.995 368.46 131.378 396.465 131.551 399.631C131.608 400.645 132.162 401.568 133.034 402.091C133.738 402.516 134.575 402.637 135.358 402.443C135.544 402.397 135.726 402.334 135.903 402.253C138.782 400.928 164.192 389.061 169.342 380.519C175.015 371.105 171.961 358.824 162.534 353.144C157.967 350.392 152.601 349.583 147.427 350.863Z" fill="#EB4548"/>
<path fill-rule="evenodd" clip-rule="evenodd" d="M151.69 357.133C149.104 357.773 146.923 359.381 145.549 361.661C142.974 365.932 143.665 379.934 143.752 381.517C143.781 382.024 144.058 382.486 144.493 382.748C144.846 382.96 145.264 383.02 145.655 382.923C145.748 382.9 145.839 382.869 145.928 382.828C147.368 382.166 160.073 376.232 162.647 371.961C165.484 367.254 163.957 361.114 159.243 358.274C156.96 356.898 154.277 356.493 151.69 357.133Z" fill="#FFEB2C"/>
<path d="M244.797 215.985C225.697 204.476 171.421 270.595 143.853 305.652C143.099 306.611 143.098 307.93 143.86 308.883C149.024 315.341 160.319 327.487 173.007 335.132C185.761 342.817 201.879 347.131 209.96 348.659C211.099 348.874 212.213 348.328 212.742 347.296C232.951 307.844 262.578 226.698 244.797 215.985Z" fill="#F98D0B"/>
<mask id="mask0" mask-type="alpha" maskUnits="userSpaceOnUse" x="143" y="214" width="108" height="135">
<path d="M244.797 215.985C225.73 204.496 171.61 270.365 143.998 305.468C143.158 306.535 143.158 308.012 144.009 309.07C149.24 315.572 160.44 327.56 173.006 335.132C185.647 342.749 201.592 347.054 209.743 348.618C211.009 348.861 212.254 348.25 212.841 347.101C233.048 307.577 262.548 226.681 244.797 215.985Z" fill="#E88104"/>
</mask>
<g mask="url(#mask0)">
<path d="M196.859 346.039C243.906 281.016 249.588 236.182 249.031 218.535L250.422 216.226L260.877 229.345L273.084 294.401C263.595 314.212 244.555 354.111 244.307 355.22C244.058 356.329 219.232 358.82 206.85 359.927L196.859 346.039Z" fill="#E6830B"/>
<path d="M151.773 317.299C200.686 238.189 219.094 232.495 230.993 222.355C195.589 241.937 168.576 286.159 148.059 318.209L149.454 321.148L151.773 317.299Z" fill="#FF981D"/>
</g>
<path d="M137.639 285.008C141.808 278.09 171.236 265.524 179.648 263.17L148.401 301.97C142.245 296.952 133.471 291.927 137.639 285.008Z" fill="#F98D0B"/>
<path d="M233.848 342.978C238.017 336.06 236.337 304.75 234.487 296.213L213.823 341.39C221.137 344.487 229.68 349.896 233.848 342.978Z" fill="#D97C09"/>
<ellipse cx="214.692" cy="265.95" rx="20.2183" ry="20.1926" transform="rotate(31.0706 214.692 265.95)" fill="#6C3924"/>
<path fill-rule="evenodd" clip-rule="evenodd" d="M199.312 288.872C195.846 285.028 200.226 283.444 193.102 267.148C185.979 250.852 203.911 243.001 203.911 243.001L205.312 242.461L206.715 241.927C206.715 241.927 225.307 235.8 230.884 252.687C236.461 269.575 240.779 267.83 240.766 273.006C240.766 273.006 240.304 279.484 235.547 281.305C230.789 283.125 225.497 278.85 225.497 278.85L212.799 283.275C212.799 283.275 213.3 289.819 209.049 291.446C204.798 293.074 199.312 288.872 199.312 288.872Z" fill="#402210"/>
<path fill-rule="evenodd" clip-rule="evenodd" d="M199.451 267.297L202.982 275.638C203.772 277.702 204.368 279.259 206.458 280.961C209.366 283.328 215.277 285.586 220.982 283.403C226.149 281.425 227.756 277.473 229.085 274.007C230.13 271.283 229.354 268.635 228.488 265.875C227.489 262.693 226.736 257.807 225.108 255.316C222.436 251.233 216.79 248.506 208.797 251.565C200.804 254.624 197.416 261.982 199.451 267.297Z" fill="#ECDECE"/>
<path d="M199.675 270.796C197.894 266.145 196.657 260.801 196.511 257.464L204.555 248.083L217.203 245.666L225.55 249.743L229.398 262.328C228.9 261.872 227.297 259.884 223.974 259.556C218.937 259.061 217.36 255.786 216.149 254.31C214.881 254.796 215.992 256.675 213.701 260.58C210.767 265.581 204.822 263.978 199.675 270.796Z" fill="#402210"/>
<path d="M213.922 268.289L213.45 269.516L214.539 269.9" stroke="#402210" stroke-linecap="round" stroke-linejoin="round"/>
<path d="M212.426 274.39C214.964 274.682 217.506 273.745 219.247 271.873L219.383 271.727" stroke="#402210" stroke-linecap="round" stroke-linejoin="round"/>
<path fill-rule="evenodd" clip-rule="evenodd" d="M228.936 268.734C229.618 270.513 228.699 272.519 226.884 273.214C225.07 273.908 223.048 273.028 222.367 271.248C221.686 269.47 222.603 267.464 224.418 266.77C226.233 266.075 228.256 266.955 228.936 268.734Z" fill="#EACAC2"/>
<path fill-rule="evenodd" clip-rule="evenodd" d="M211.649 275.35C212.33 277.13 211.412 279.136 209.597 279.831C207.783 280.525 205.76 279.645 205.079 277.865C204.398 276.086 205.316 274.081 207.13 273.386C208.946 272.692 210.968 273.572 211.649 275.35Z" fill="#EACAC2"/>
<path fill-rule="evenodd" clip-rule="evenodd" d="M220.154 263.613C220.349 264.123 220.086 264.698 219.565 264.897C219.045 265.096 218.465 264.844 218.27 264.334C218.074 263.824 218.338 263.248 218.858 263.049C219.378 262.85 219.959 263.102 220.154 263.613Z" fill="#402210"/>
<path fill-rule="evenodd" clip-rule="evenodd" d="M209.026 267.872C209.221 268.382 208.958 268.957 208.437 269.156C207.917 269.355 207.337 269.103 207.142 268.593C206.946 268.083 207.21 267.507 207.73 267.308C208.251 267.109 208.83 267.362 209.026 267.872Z" fill="#402210"/>
</g>
<defs>
<clipPath id="clip0">
<rect width="375" height="812" fill="white"/>
</clipPath>
</defs>
</svg>
