<svg width="36" height="36" viewBox="0 0 36 36" fill="none" xmlns="http://www.w3.org/2000/svg">
<circle cx="18" cy="18" r="18" fill="#EEEEEE"/>
<path fill-rule="evenodd" clip-rule="evenodd" d="M17.1606 8.20309C17.3352 7.30422 17.618 6.72 17.9372 6.72C18.2564 6.72 18.5392 7.30422 18.7138 8.20309C19.3501 7.44448 19.9271 7.0348 20.2172 7.20228C20.6763 7.46738 20.2427 9.07812 19.2486 10.8C19.1622 10.9496 19.0744 11.0952 18.9858 11.2361C19.4558 12.3599 19.5875 13.247 19.2572 13.4377C19.0902 13.5341 18.8282 13.4392 18.5144 13.1967C18.3538 13.6508 18.1539 13.92 17.9372 13.92C17.7205 13.92 17.5206 13.6508 17.3599 13.1967C17.0462 13.4392 16.7842 13.5341 16.6172 13.4377C16.2869 13.247 16.4186 12.3599 16.8886 11.2361C16.8 11.0952 16.7122 10.9496 16.6258 10.8C15.6317 9.07812 15.198 7.46738 15.6572 7.20228C15.9473 7.0348 16.5243 7.44448 17.1606 8.20309Z" fill="#AAAAAA"/>
<path d="M24.1963 11.7601C23.8555 19.1832 21.5889 24.5755 19.6653 27.6069C18.8479 28.8949 17.145 28.9323 16.369 27.6189C14.079 23.7434 11.9674 16.5781 11.7744 11.6194C11.7353 10.6158 12.5741 9.84001 13.5784 9.84001L22.32 9.84001C23.3804 9.84001 24.2449 10.7009 24.1963 11.7601Z" fill="#AAAAAA"/>
</svg>
