<svg width="128" height="128" viewBox="0 0 128 128" fill="none" xmlns="http://www.w3.org/2000/svg">
<path fill-rule="evenodd" clip-rule="evenodd" d="M79.9449 29.1114C82.2799 26.4243 84.3678 25.0071 85.4425 25.6275C86.5172 26.248 86.3338 28.7648 85.1741 32.1305C88.7911 30.8133 91.5303 30.5557 92.1814 31.6834C93.212 33.4685 88.6209 38.0487 81.9268 41.9135C81.345 42.2494 80.7664 42.5689 80.1942 42.871C79.5921 47.5684 78.3113 50.811 76.8285 50.811C76.0789 50.811 75.381 49.9823 74.7962 48.5559C73.3726 49.7724 72.1763 50.2901 71.4467 49.8689C70.7172 49.4477 70.5674 48.1528 70.9091 46.3117C69.3815 46.5185 68.3148 46.3283 67.94 45.6792C67.1986 44.3951 69.3664 41.6646 73.1333 38.7944C73.1089 38.1478 73.0963 37.487 73.0963 36.8152C73.0963 29.0855 74.7673 22.8194 76.8285 22.8194C78.1307 22.8194 79.2772 25.3204 79.9449 29.1114Z" fill="#27C527"/>
<path d="M96.7199 54.7644C81.1432 79.0944 63.0298 92.8435 50.6608 99.3106C45.4052 102.058 39.5991 98.8739 39.5392 92.9435C39.3626 75.4437 46.1815 47.2145 55.1708 30.144C56.9901 26.6893 61.322 25.7077 64.7034 27.6599L94.1353 44.6525C97.7055 46.7137 98.9427 51.2925 96.7199 54.7644Z" fill="#F98D0B"/>
<circle cx="60.8216" cy="56.8443" r="1.62771" transform="rotate(30 60.8216 56.8443)" fill="black"/>
<circle cx="71.159" cy="62.8126" r="1.62771" transform="rotate(30 71.159 62.8126)" fill="black"/>
<path d="M59.7508 70.6357C63.3839 72.7332 68.0295 71.4884 70.1271 67.8553L56.9705 60.2594C54.8729 63.8925 56.1177 68.5381 59.7508 70.6357Z" fill="black"/>
</svg>
