<svg width="46" height="42" viewBox="0 0 46 42" fill="none" xmlns="http://www.w3.org/2000/svg">
<path fill-rule="evenodd" clip-rule="evenodd" d="M9.18276 16.8071C9.18276 16.8071 5.85469 14.2619 3.17237 9.81628C-0.152599 4.30662 7.7319 -1.25597 11.5546 3.9043C12.3856 5.02656 13.1224 6.34786 13.7009 7.9042C17.3984 17.85 9.18276 16.8071 9.18276 16.8071Z" fill="#E9E9E9"/>
<path fill-rule="evenodd" clip-rule="evenodd" d="M11.0851 16.2146C11.0851 16.2146 7.01399 13.2184 4.82736 8.08247C3.72111 5.4854 6.59385 2.96032 8.94191 4.46266C10.5677 5.50445 12.2296 7.15079 13.4062 9.75845C16.5832 16.799 11.0851 16.2146 11.0851 16.2146Z" fill="#EACAC2"/>
<path fill-rule="evenodd" clip-rule="evenodd" d="M36.5234 15.5168C36.5234 15.5168 39.8659 12.9917 42.5752 8.56411C45.9333 3.07457 38.0819 -2.53673 34.2281 2.60025C33.3909 3.71616 32.6458 5.03323 32.0591 6.58533C28.3015 16.5089 36.5234 15.5168 36.5234 15.5168Z" fill="#E9E9E9"/>
<path fill-rule="evenodd" clip-rule="evenodd" d="M34.3684 15.2505C34.3684 15.2505 38.4571 12.2797 40.6748 7.15758C41.7955 4.56685 38.9383 2.02483 36.582 3.51341C34.95 4.54356 33.2777 6.18036 32.0856 8.77956C28.8672 15.8011 34.3684 15.2505 34.3684 15.2505Z" fill="#EACAC2"/>
<path fill-rule="evenodd" clip-rule="evenodd" d="M0 23.0794C0 10.3322 10.2978 0 23.0005 0C35.7022 0 46 10.3322 46 23.0794C46 35.8255 35.7022 42 23.0005 42C10.2978 42 0 35.8255 0 23.0794Z" fill="#E9E9E9"/>
<path fill-rule="evenodd" clip-rule="evenodd" d="M3.92871 23.4645C3.92871 14.0397 12.4672 6.39985 22.9999 6.39985C33.5326 6.39985 42.0711 14.0397 42.0711 23.4645C42.0711 32.8894 33.5326 37.4536 22.9999 37.4536C12.4672 37.4536 3.92871 32.8894 3.92871 23.4645Z" fill="#EDDECE"/>
<path d="M21.0673 17.2005L20.6358 17.8622L21.0673 18.5208" stroke="#40210F" stroke-width="0.5" stroke-linecap="round"/>
<path fill-rule="evenodd" clip-rule="evenodd" d="M39.8397 25.7396C39.8397 28.3812 37.7472 30.5219 35.1652 30.5219C32.5843 30.5219 30.4908 28.3812 30.4908 25.7396C30.4908 23.0981 32.5843 20.9573 35.1652 20.9573C37.7472 20.9573 39.8397 23.0981 39.8397 25.7396Z" fill="#EACAC2"/>
<path fill-rule="evenodd" clip-rule="evenodd" d="M15.2424 25.7396C15.2424 28.3812 13.1499 30.5219 10.568 30.5219C7.98602 30.5219 5.89355 28.3812 5.89355 25.7396C5.89355 23.0981 7.98602 20.9573 10.568 20.9573C13.1499 20.9573 15.2424 23.0981 15.2424 25.7396Z" fill="#EACAC2"/>
<path fill-rule="evenodd" clip-rule="evenodd" d="M31.0753 15.7881C31.0753 16.5451 30.4751 17.1592 29.7351 17.1592C28.9942 17.1592 28.395 16.5451 28.395 15.7881C28.395 15.0311 28.9942 14.4171 29.7351 14.4171C30.4751 14.4171 31.0753 15.0311 31.0753 15.7881Z" fill="#40210F"/>
<path fill-rule="evenodd" clip-rule="evenodd" d="M15.2422 15.7881C15.2422 16.5451 14.642 17.1592 13.9021 17.1592C13.1611 17.1592 12.5609 16.5451 12.5609 15.7881C12.5609 15.0311 13.1611 14.4171 13.9021 14.4171C14.642 14.4171 15.2422 15.0311 15.2422 15.7881Z" fill="#40210F"/>
<path fill-rule="evenodd" clip-rule="evenodd" d="M16.0731 23.2779H27.3809C27.3809 23.2779 27.3809 30.5217 21.9862 30.5217C16.0731 30.5217 16.0731 23.2779 16.0731 23.2779Z" fill="#BC173D"/>
<path fill-rule="evenodd" clip-rule="evenodd" d="M22.9526 24.5087C22.7394 24.7268 21.9385 24.748 21.7491 24.5087C21.5608 24.2695 21.6653 23.2774 21.6653 23.2774H23.0468C23.0468 23.2774 23.1658 24.2906 22.9526 24.5087Z" fill="#FFFDFD"/>
<path fill-rule="evenodd" clip-rule="evenodd" d="M21.662 24.5087C21.4488 24.7268 20.6478 24.748 20.4584 24.5087C20.2701 24.2695 20.3746 23.2774 20.3746 23.2774H21.7561C21.7561 23.2774 21.8741 24.2906 21.662 24.5087Z" fill="#FFFDFD"/>
<path fill-rule="evenodd" clip-rule="evenodd" d="M19.2903 6.72331C19.2903 6.72331 18.0299 9.12981 19.2903 10.7041C19.2903 10.7041 19.6194 9.1711 21.0671 8.71373C21.0671 8.71373 22.0037 10.791 26.7888 10.7041C26.7888 10.7041 24.9085 8.68726 26.0189 6.72331C26.0189 6.72331 23.2072 5.62752 19.2903 6.72331Z" fill="#40210F"/>
</svg>
