<svg width="50" height="52" viewBox="0 0 50 52" fill="none" xmlns="http://www.w3.org/2000/svg">
<path fill-rule="evenodd" clip-rule="evenodd" d="M0.490136 45.5015C-1.56712 40.1677 3.57516 40.263 2.66092 20.6426C1.74754 1.02307 23.3418 0.00337367 23.3418 0.00337367L25 0L26.6582 0.00337367C26.6582 0.00337367 48.2533 1.02307 47.3391 20.6426C46.4248 40.263 51.5671 40.1677 49.5099 45.5015C49.5099 45.5015 46.4764 52 40.8508 52C35.2252 52 31.4547 45.5015 31.4547 45.5015L16.6102 45.0528C16.6102 45.0528 14.5443 52 9.51642 52C4.48939 52 0.490136 45.5015 0.490136 45.5015" fill="#402210"/>
<path fill-rule="evenodd" clip-rule="evenodd" d="M9.15039 23.3033L9.50002 33.2994C9.50002 35.7411 9.50002 37.5816 10.984 40.1623C13.0482 43.7519 18.2541 48.4143 25.0004 48.4143C31.1102 48.4143 34.3285 44.9723 37.0669 41.9225C39.2197 39.5255 39.465 36.4875 39.6611 33.2994C39.8864 29.623 41.0395 24.2858 40.3429 21.0741C39.1999 15.8078 34.4524 10.7659 25.0004 10.7659C15.5483 10.7659 9.15039 17.0173 9.15039 23.3033Z" fill="#ECDECE"/>
<path d="M8 27C8 21.5 8.83333 15.5 9.99999 12L22 5.5L36 8L43 15.5L42 30C41.6667 29.3333 40.7985 26.6492 37.5 25C32.5 22.5 32.1667 18.5 31.5 16.5C30 16.5 30.4043 18.8765 26.5 22C21.5 26 16 22 8 27Z" fill="#402210"/>
<path d="M23.6847 30.0383L22.7137 31.1178L23.6847 31.9435" stroke="#402210" stroke-linecap="round" stroke-linejoin="round"/>
<path d="M19.7332 35.7404C22.2359 37.0443 25.2272 37.0805 27.7618 35.8373L27.9604 35.7404" stroke="#402210" stroke-linecap="round" stroke-linejoin="round"/>
<path fill-rule="evenodd" clip-rule="evenodd" d="M38.9952 36.4249C38.9952 38.5292 37.2562 40.2354 35.1103 40.2354C32.9645 40.2354 31.2263 38.5292 31.2263 36.4249C31.2263 34.3214 32.9645 32.6152 35.1103 32.6152C37.2562 32.6152 38.9952 34.3214 38.9952 36.4249" fill="#EACAC2"/>
<path fill-rule="evenodd" clip-rule="evenodd" d="M18.5531 36.4249C18.5531 38.5292 16.814 40.2354 14.6673 40.2354C12.5224 40.2354 10.7833 38.5292 10.7833 36.4249C10.7833 34.3214 12.5224 32.6152 14.6673 32.6152C16.814 32.6152 18.5531 34.3214 18.5531 36.4249" fill="#EACAC2"/>
<path fill-rule="evenodd" clip-rule="evenodd" d="M31.9586 27.676C31.9586 28.2791 31.4598 28.7683 30.844 28.7683C30.2291 28.7683 29.7302 28.2791 29.7302 27.676C29.7302 27.0721 30.2291 26.583 30.844 26.583C31.4598 26.583 31.9586 27.0721 31.9586 27.676" fill="#402210"/>
<path fill-rule="evenodd" clip-rule="evenodd" d="M18.7991 27.676C18.7991 28.2791 18.3011 28.7683 17.6853 28.7683C17.0704 28.7683 16.5715 28.2791 16.5715 27.676C16.5715 27.0721 17.0704 26.583 17.6853 26.583C18.3011 26.583 18.7991 27.0721 18.7991 27.676" fill="#402210"/>
</svg>
