<svg width="38" height="38" viewBox="0 0 38 38" fill="none" xmlns="http://www.w3.org/2000/svg">
<path fill-rule="evenodd" clip-rule="evenodd" d="M21.1556 6.89944C21.6571 5.87062 22.1876 5.25672 22.5731 5.35999C22.9585 5.46326 23.1109 6.26016 23.0309 7.40193C24.0446 6.69185 24.8738 6.38388 25.1699 6.67995C25.6385 7.14858 24.5938 8.9531 22.8365 10.7105C22.6837 10.8632 22.5306 11.0106 22.3781 11.152C22.582 12.661 22.454 13.7746 21.9935 13.898C21.7607 13.9604 21.475 13.7611 21.1747 13.3668C20.8338 13.8631 20.5053 14.1234 20.2437 14.0533C19.9821 13.9832 19.8278 13.5935 19.7807 12.9933C19.3235 13.1846 18.9764 13.2143 18.8059 13.0439C18.4688 12.7068 18.9148 11.6784 19.8459 10.4735C19.7845 10.2748 19.7256 10.0706 19.6697 9.86193C19.0265 7.46133 19.024 5.37621 19.6641 5.20468C20.0686 5.09631 20.6327 5.77764 21.1556 6.89944Z" fill="#27C527"/>
<path d="M28.5006 13.4706C25.6876 22.323 21.2063 28.1004 17.903 31.1382C16.4995 32.4289 14.4313 31.9231 13.9192 30.0863C12.408 24.666 12.1766 15.3314 13.5479 9.28181C13.8254 8.05747 15.0891 7.39212 16.3017 7.71704L26.8564 10.5452C28.1368 10.8882 28.902 12.2073 28.5006 13.4706Z" fill="#F98D0B"/>
</svg>
