<svg width="188" height="225" viewBox="0 0 188 225" fill="none" xmlns="http://www.w3.org/2000/svg">
<rect x="77.7373" width="110.219" height="138.972" rx="19.1686" fill="#9FE5CC"/>
<path fill-rule="evenodd" clip-rule="evenodd" d="M127.479 17.5265C128.229 13.6683 129.442 11.1606 130.813 11.1606C132.183 11.1606 133.397 13.6683 134.146 17.5264C136.877 14.2704 139.354 12.512 140.599 13.2308C142.57 14.3687 140.708 21.2823 136.441 28.6728C136.07 29.3152 135.694 29.9401 135.313 30.5448C137.331 35.3685 137.896 39.1758 136.478 39.9943C135.762 40.4081 134.637 40.0011 133.29 38.9601C132.601 40.909 131.743 42.0645 130.813 42.0645C129.883 42.0645 129.024 40.909 128.335 38.96C126.988 40.001 125.864 40.4081 125.147 39.9943C123.729 39.1758 124.295 35.3685 126.312 30.5448C125.932 29.9401 125.555 29.3152 125.184 28.6728C120.917 21.2823 119.056 14.3687 121.026 13.2308C122.271 12.5119 124.748 14.2704 127.479 17.5265Z" fill="#27C527"/>
<path d="M157.679 32.7939C156.217 64.6551 146.488 87.8 138.231 100.811C134.723 106.34 127.414 106.5 124.083 100.863C114.254 84.2283 105.19 53.4735 104.362 32.1896C104.195 27.8822 107.795 24.5523 112.105 24.5523L149.626 24.5523C154.178 24.5523 157.888 28.2473 157.679 32.7939Z" fill="#F98D0B"/>
<circle cx="125.162" cy="51.9761" r="1.79705" fill="black"/>
<circle cx="137.773" cy="52.1146" r="1.79705" fill="black"/>
<path d="M131.093 66.5661C135.725 66.5661 139.479 62.8114 139.479 58.1798H122.707C122.707 62.8114 126.462 66.5661 131.093 66.5661Z" fill="black"/>
<rect x="0.507202" y="85.0606" width="109.607" height="139.499" rx="19.1686" fill="#D1D0F7"/>
<path fill-rule="evenodd" clip-rule="evenodd" d="M21.5079 178.876C18.7747 171.79 25.6065 171.916 24.3919 145.849C23.1784 119.784 51.8678 118.429 51.8678 118.429L54.0708 118.424L56.2738 118.429C56.2738 118.429 84.9644 119.784 83.7498 145.849C82.5351 171.916 89.367 171.79 86.6338 178.876C86.6338 178.876 82.6037 187.51 75.1297 187.51C67.6557 187.51 62.6463 178.876 62.6463 178.876L42.9244 178.28C42.9244 178.28 40.1798 187.51 33.4999 187.51C26.8211 187.51 21.5079 178.876 21.5079 178.876" fill="#402210"/>
<path fill-rule="evenodd" clip-rule="evenodd" d="M33.0137 149.384L33.4782 162.665C33.4782 165.909 33.4782 168.354 35.4498 171.783C38.1921 176.552 45.1085 182.746 54.0714 182.746C62.1887 182.746 66.4645 178.173 70.1026 174.121C72.9627 170.937 73.2886 166.9 73.5492 162.665C73.8485 157.78 75.3805 150.69 74.455 146.423C72.9364 139.426 66.629 132.728 54.0714 132.728C41.5138 132.728 33.0137 141.033 33.0137 149.384Z" fill="#ECDECE"/>
<path d="M31.4852 154.296C31.4852 146.988 32.5924 139.017 34.1424 134.367L50.0851 125.731L68.6851 129.053L77.985 139.017L76.6565 158.281C76.2136 157.396 75.0602 153.83 70.6779 151.638C64.0351 148.317 63.5922 143.003 62.7065 140.346C60.7137 140.346 61.2509 143.503 56.0637 147.653C49.4209 152.967 42.1138 147.653 31.4852 154.296Z" fill="#402210"/>
<path d="M52.3235 158.332L51.0334 159.766L52.3235 160.863" stroke="#402210" stroke-width="1.19804" stroke-linecap="round" stroke-linejoin="round"/>
<path d="M47.0735 165.908C50.3986 167.64 54.3727 167.688 57.74 166.037L58.004 165.908" stroke="#402210" stroke-width="1.19804" stroke-linecap="round" stroke-linejoin="round"/>
<path fill-rule="evenodd" clip-rule="evenodd" d="M72.6645 166.817C72.6645 169.613 70.3541 171.88 67.5032 171.88C64.6523 171.88 62.343 169.613 62.343 166.817C62.343 164.023 64.6523 161.756 67.5032 161.756C70.3541 161.756 72.6645 164.023 72.6645 166.817" fill="#EACAC2"/>
<path fill-rule="evenodd" clip-rule="evenodd" d="M45.5056 166.817C45.5056 169.613 43.1952 171.88 40.3431 171.88C37.4934 171.88 35.183 169.613 35.183 166.817C35.183 164.023 37.4934 161.756 40.3431 161.756C43.1952 161.756 45.5056 164.023 45.5056 166.817" fill="#EACAC2"/>
<path fill-rule="evenodd" clip-rule="evenodd" d="M63.3158 155.194C63.3158 155.995 62.6531 156.645 61.8349 156.645C61.018 156.645 60.3552 155.995 60.3552 155.194C60.3552 154.391 61.018 153.742 61.8349 153.742C62.6531 153.742 63.3158 154.391 63.3158 155.194" fill="#402210"/>
<path fill-rule="evenodd" clip-rule="evenodd" d="M45.8326 155.194C45.8326 155.995 45.171 156.645 44.3529 156.645C43.5359 156.645 42.8732 155.995 42.8732 155.194C42.8732 154.391 43.5359 153.742 44.3529 153.742C45.171 153.742 45.8326 154.391 45.8326 155.194" fill="#402210"/>
</svg>
