<svg width="200" height="200" viewBox="0 0 200 200" fill="none" xmlns="http://www.w3.org/2000/svg">
<path fill-rule="evenodd" clip-rule="evenodd" d="M93.0019 18.3592C94.4564 10.8686 96.8132 6 99.4733 6C102.133 6 104.49 10.8686 105.945 18.3592C111.247 12.0376 116.056 8.62359 118.473 10.0193C122.3 12.2284 118.686 25.6512 110.402 40C109.681 41.2472 108.95 42.4603 108.212 43.6345C112.128 52.9996 113.226 60.3916 110.473 61.9808C109.082 62.7842 106.898 61.9939 104.284 59.9728C102.945 63.7567 101.279 66 99.4733 66C97.6676 66 96.0017 63.7567 94.6629 59.9728C92.0486 61.9939 89.8648 62.7842 88.4733 61.9808C85.7208 60.3916 86.8184 52.9996 90.7351 43.6345C89.9968 42.4603 89.2652 41.2472 88.5451 40C80.2608 25.6512 76.647 12.2284 80.4733 10.0193C82.8907 8.6236 87.6993 12.0376 93.0019 18.3592Z" fill="#DDDDDD"/>
<path d="M151.635 48.0011C148.795 109.86 129.907 154.796 113.877 180.057C107.066 190.791 92.8746 191.102 86.4077 180.158C67.3244 147.861 49.7277 88.1507 48.1195 46.8279C47.7941 38.4649 54.7835 32 63.1528 32L136 32C144.837 32 152.041 39.1739 151.635 48.0011Z" fill="#DDDDDD"/>
</svg>
