<svg width="375" height="812" viewBox="0 0 375 812" fill="none" xmlns="http://www.w3.org/2000/svg">
<g clip-path="url(#clip0)">
<rect width="375" height="812" fill="#17265D"/>
<path fill-rule="evenodd" clip-rule="evenodd" d="M165.432 527.152C165.432 527.152 159.996 522.994 155.615 515.733C150.184 506.734 163.062 497.649 169.306 506.077C170.663 507.91 171.867 510.068 172.812 512.61C178.851 528.855 165.432 527.152 165.432 527.152" fill="#E9E9E9"/>
<path fill-rule="evenodd" clip-rule="evenodd" d="M168.539 526.184C168.539 526.184 161.89 521.29 158.318 512.901C156.511 508.659 161.203 504.535 165.039 506.989C167.694 508.691 170.408 511.38 172.33 515.639C177.519 527.138 168.539 526.184 168.539 526.184" fill="#EACAC2"/>
<path fill-rule="evenodd" clip-rule="evenodd" d="M210.088 525.044C210.088 525.044 215.548 520.92 219.973 513.688C225.458 504.722 212.634 495.557 206.339 503.947C204.972 505.77 203.755 507.921 202.797 510.456C196.659 526.664 210.088 525.044 210.088 525.044" fill="#E9E9E9"/>
<path fill-rule="evenodd" clip-rule="evenodd" d="M206.568 524.609C206.568 524.609 213.246 519.757 216.869 511.391C218.699 507.159 214.032 503.007 210.184 505.439C207.518 507.121 204.787 509.795 202.84 514.04C197.583 525.508 206.568 524.609 206.568 524.609" fill="#EACAC2"/>
<path fill-rule="evenodd" clip-rule="evenodd" d="M150.433 537.396C150.433 516.576 167.253 499.7 188.001 499.7C208.747 499.7 225.567 516.576 225.567 537.396C225.567 558.215 208.747 568.3 188.001 568.3C167.253 568.3 150.433 558.215 150.433 537.396" fill="#E9E9E9"/>
<path fill-rule="evenodd" clip-rule="evenodd" d="M156.85 538.025C156.85 522.632 170.796 510.153 188 510.153C205.203 510.153 219.149 522.632 219.149 538.025C219.149 553.419 205.203 560.874 188 560.874C170.796 560.874 156.85 553.419 156.85 538.025" fill="#EDDECE"/>
<path d="M184.843 527.794L184.138 528.875L184.843 529.951" stroke="#40210F" stroke-width="0.5" stroke-linecap="round"/>
<path fill-rule="evenodd" clip-rule="evenodd" d="M215.505 541.741C215.505 546.056 212.087 549.552 207.87 549.552C203.654 549.552 200.235 546.056 200.235 541.741C200.235 537.427 203.654 533.93 207.87 533.93C212.087 533.93 215.505 537.427 215.505 541.741" fill="#EACAC2"/>
<path fill-rule="evenodd" clip-rule="evenodd" d="M175.329 541.741C175.329 546.056 171.911 549.552 167.694 549.552C163.477 549.552 160.059 546.056 160.059 541.741C160.059 537.427 163.477 533.93 167.694 533.93C171.911 533.93 175.329 537.427 175.329 541.741" fill="#EACAC2"/>
<path fill-rule="evenodd" clip-rule="evenodd" d="M201.19 525.487C201.19 526.724 200.209 527.727 199.001 527.727C197.79 527.727 196.812 526.724 196.812 525.487C196.812 524.251 197.79 523.248 199.001 523.248C200.209 523.248 201.19 524.251 201.19 525.487" fill="#40210F"/>
<path fill-rule="evenodd" clip-rule="evenodd" d="M175.329 525.487C175.329 526.724 174.349 527.727 173.14 527.727C171.93 527.727 170.95 526.724 170.95 525.487C170.95 524.251 171.93 523.248 173.14 523.248C174.349 523.248 175.329 524.251 175.329 525.487" fill="#40210F"/>
<path fill-rule="evenodd" clip-rule="evenodd" d="M176.686 537.72H195.155C195.155 537.72 195.155 549.552 186.344 549.552C176.686 549.552 176.686 537.72 176.686 537.72" fill="#BC173D"/>
<path fill-rule="evenodd" clip-rule="evenodd" d="M187.923 539.731C187.574 540.087 186.266 540.122 185.957 539.731C185.649 539.34 185.82 537.72 185.82 537.72H188.076C188.076 537.72 188.271 539.375 187.923 539.731" fill="#FFFDFD"/>
<path fill-rule="evenodd" clip-rule="evenodd" d="M185.815 539.731C185.466 540.087 184.158 540.122 183.849 539.731C183.541 539.34 183.712 537.72 183.712 537.72H185.968C185.968 537.72 186.161 539.375 185.815 539.731" fill="#FFFDFD"/>
<path fill-rule="evenodd" clip-rule="evenodd" d="M181.941 510.681C181.941 510.681 179.882 514.612 181.941 517.183C181.941 517.183 182.478 514.679 184.843 513.932C184.843 513.932 186.373 517.325 194.188 517.183C194.188 517.183 191.117 513.889 192.931 510.681C192.931 510.681 188.338 508.892 181.941 510.681" fill="#40210F"/>
<path d="M186 545C103.158 545 25.8043 567 0 577V812H375V577C344.839 567 268.842 545 186 545Z" fill="#EAD9B9"/>
<path fill-rule="evenodd" clip-rule="evenodd" d="M112.67 592.488C112.947 591.065 113.394 590.14 113.9 590.14C114.405 590.14 114.853 591.065 115.129 592.488C116.137 591.287 117.051 590.638 117.51 590.904C118.237 591.323 117.55 593.874 115.976 596.6C115.839 596.837 115.7 597.067 115.56 597.291C116.304 599.07 116.513 600.474 115.99 600.776C115.726 600.929 115.311 600.779 114.814 600.395C114.56 601.114 114.243 601.54 113.9 601.54C113.557 601.54 113.24 601.114 112.986 600.395C112.489 600.779 112.074 600.929 111.81 600.776C111.287 600.474 111.495 599.07 112.24 597.291C112.099 597.067 111.96 596.837 111.824 596.6C110.25 593.874 109.563 591.323 110.29 590.904C110.749 590.638 111.663 591.287 112.67 592.488Z" fill="#27C527"/>
<path d="M123.811 598.12C123.271 609.873 119.682 618.411 116.637 623.211C115.342 625.25 112.646 625.309 111.417 623.23C107.792 617.094 104.448 605.749 104.143 597.897C104.081 596.308 105.409 595.08 106.999 595.08L120.84 595.08C122.519 595.08 123.888 596.443 123.811 598.12Z" fill="#F98D0B"/>
<path fill-rule="evenodd" clip-rule="evenodd" d="M255.39 608.314C255.725 606.554 256.267 605.41 256.879 605.41C257.491 605.41 258.033 606.554 258.367 608.314C259.587 606.829 260.693 606.027 261.249 606.355C262.129 606.874 261.298 610.028 259.392 613.4C259.227 613.693 259.058 613.978 258.889 614.254C259.789 616.455 260.042 618.192 259.409 618.565C259.089 618.754 258.587 618.569 257.985 618.094C257.677 618.983 257.294 619.51 256.879 619.51C256.464 619.51 256.08 618.983 255.772 618.094C255.171 618.569 254.669 618.754 254.349 618.565C253.716 618.192 253.968 616.455 254.869 614.254C254.699 613.978 254.531 613.693 254.365 613.4C252.46 610.028 251.629 606.874 252.509 606.355C253.065 606.027 254.171 606.829 255.39 608.314Z" fill="#27C527"/>
<path d="M268.876 615.28C268.223 629.817 263.879 640.377 260.192 646.313C258.625 648.836 255.361 648.909 253.874 646.337C249.485 638.747 245.437 624.715 245.068 615.005C244.993 613.039 246.6 611.52 248.525 611.52L265.28 611.52C267.312 611.52 268.969 613.206 268.876 615.28Z" fill="#F98D0B"/>
<path fill-rule="evenodd" clip-rule="evenodd" d="M197.382 422.054C198.686 420.826 199.797 420.218 200.292 420.578C200.787 420.937 200.554 422.181 199.791 423.803C201.651 423.316 203.017 423.317 203.274 423.909C203.682 424.846 201.157 426.911 197.634 428.521C197.328 428.661 197.024 428.793 196.725 428.916C196.161 431.227 195.345 432.781 194.614 432.711C194.244 432.676 193.946 432.231 193.739 431.493C192.967 432.032 192.347 432.234 192.011 431.99C191.675 431.746 191.675 431.094 191.948 430.194C191.182 430.225 190.666 430.08 190.518 429.74C190.225 429.066 191.45 427.808 193.471 426.556C193.496 426.233 193.527 425.903 193.565 425.568C194.003 421.72 195.183 418.679 196.2 418.776C196.843 418.837 197.267 420.136 197.382 422.054Z" fill="#27C527"/>
<path d="M204.206 435.612C195.14 446.995 185.422 452.99 178.951 455.63C176.202 456.751 173.517 454.894 173.824 451.938C174.729 443.218 179.694 429.484 185.097 421.407C186.191 419.772 188.384 419.486 189.942 420.617L203.503 430.457C205.148 431.651 205.499 433.988 204.206 435.612Z" fill="#F98D0B"/>
<path fill-rule="evenodd" clip-rule="evenodd" d="M170.971 699.416C171.392 697.206 172.076 695.77 172.847 695.77C173.619 695.77 174.302 697.206 174.724 699.416C176.262 697.551 177.656 696.544 178.357 696.956C179.467 697.607 178.419 701.567 176.016 705.8C175.808 706.168 175.595 706.526 175.381 706.872C176.517 709.635 176.835 711.816 176.037 712.284C175.634 712.521 175 712.288 174.242 711.692C173.854 712.808 173.371 713.47 172.847 713.47C172.324 713.47 171.84 712.808 171.452 711.692C170.694 712.288 170.061 712.521 169.657 712.284C168.859 711.816 169.177 709.635 170.313 706.872C170.099 706.526 169.887 706.168 169.678 705.8C167.276 701.567 166.228 697.607 167.337 696.956C168.038 696.544 169.433 697.551 170.971 699.416Z" fill="#27C527"/>
<path d="M187.974 708.16C187.151 726.409 181.673 739.665 177.024 747.117C175.049 750.283 170.934 750.375 169.058 747.147C163.524 737.619 158.421 720.004 157.955 707.814C157.86 705.347 159.887 703.44 162.314 703.44L183.44 703.44C186.003 703.44 188.092 705.556 187.974 708.16Z" fill="#F98D0B"/>
<circle cx="264.5" cy="147.5" r="5.5" fill="#E05959"/>
<circle cx="138" cy="180" r="3" fill="white"/>
<circle cx="53.5" cy="133.5" r="8.5" fill="#96ECFF"/>
<circle cx="304" cy="237" r="2" fill="white"/>
<circle cx="372.5" cy="95.5" r="12.5" fill="#EFFF33"/>
<path d="M122.999 224.584H121.091V243.952H122.999C126.599 243.952 130.199 243.736 134.699 242.836L134.447 241.144C130.127 242.044 126.455 242.224 122.999 242.224V224.584ZM144.419 220.516V233.944H138.875V221.308H137.039V250.792H138.875V235.636H144.419V252.52H146.255V220.516H144.419ZM168.885 243.448C165.357 243.448 162.873 239.56 162.873 234.124C162.873 228.652 165.357 224.836 168.885 224.836C172.413 224.836 174.897 228.652 174.897 234.124C174.897 239.56 172.413 243.448 168.885 243.448ZM168.885 223.144C164.277 223.144 161.073 227.464 161.073 234.124C161.073 240.82 164.277 245.104 168.885 245.104C173.493 245.104 176.697 240.82 176.697 234.124C176.697 227.464 173.493 223.144 168.885 223.144ZM190.341 233.728H184.725V220.552H182.817V252.52H184.725V235.348H190.341V233.728ZM217.554 220.552V252.52H219.462V220.552H217.554ZM202.83 223.144C198.15 223.144 194.874 227.464 194.874 234.124C194.874 240.82 198.15 245.104 202.83 245.104C207.474 245.104 210.75 240.82 210.75 234.124C210.75 227.464 207.474 223.144 202.83 223.144ZM202.83 224.836C206.394 224.836 208.914 228.652 208.914 234.124C208.914 239.596 206.394 243.448 202.83 243.448C199.23 243.448 196.71 239.596 196.71 234.124C196.71 228.652 199.23 224.836 202.83 224.836ZM237.063 223C232.095 223 228.639 225.952 228.639 230.308C228.639 234.664 232.095 237.616 237.063 237.616C242.031 237.616 245.487 234.664 245.487 230.308C245.487 225.952 242.031 223 237.063 223ZM237.063 224.656C240.879 224.656 243.651 227.032 243.651 230.308C243.651 233.584 240.879 235.96 237.063 235.96C233.247 235.96 230.475 233.584 230.475 230.308C230.475 227.032 233.247 224.656 237.063 224.656ZM250.383 220.552V252.556H252.291V220.552H250.383ZM227.163 245.176C232.995 245.176 240.951 245.176 248.295 243.844L248.115 242.368C240.987 243.484 232.815 243.52 226.839 243.52L227.163 245.176ZM67.7176 277.676C74.0896 277.244 78.2296 275.228 79.9576 272.348C81.6856 275.228 85.8616 277.244 92.2336 277.676L93.7096 274.148C87.7336 273.788 84.4936 272.168 83.5216 270.368H92.2696V266.768H67.7176V270.368H76.3936C75.4216 272.168 72.1816 273.788 66.2416 274.148L67.7176 277.676ZM79.8856 296.072C76.4296 296.072 74.7016 295.712 74.7016 294.848C74.7016 293.948 76.4296 293.588 79.8856 293.588C83.3776 293.588 85.1416 293.948 85.1416 294.848C85.1416 295.712 83.3776 296.072 79.8856 296.072ZM79.8856 290.456C73.5136 290.456 69.8056 292.004 69.8056 294.848C69.8056 297.692 73.5136 299.204 79.8856 299.204C86.3296 299.204 90.0376 297.692 90.0376 294.848C90.0376 292.004 86.3296 290.456 79.8856 290.456ZM82.2976 283.616H77.5456V285.956H67.6816V289.484H92.1976V285.956H82.2976V283.616ZM82.2976 278.864V275.84H77.5456V278.864H64.9816V282.572H95.0416V278.864H82.2976ZM113.075 270.656C117.539 270.656 120.203 271.736 120.203 273.752C120.203 275.804 117.539 276.812 113.075 276.812C108.647 276.812 105.983 275.804 105.983 273.752C105.983 271.736 108.647 270.656 113.075 270.656ZM113.075 280.592C120.311 280.592 125.099 277.964 125.099 273.752C125.099 269.54 120.311 266.912 113.075 266.912C105.875 266.912 101.087 269.54 101.087 273.752C101.087 277.964 105.875 280.592 113.075 280.592ZM106.487 288.872H101.735V298.52H124.703V294.74H106.487V288.872ZM98.0988 282.86V286.64H128.051V282.86H98.0988ZM167.848 275.228C160.396 274.4 156.796 270.656 156.796 267.308V266.3H151.9V267.308C151.9 270.692 148.3 274.364 140.848 275.228L142.504 278.9C148.156 278.18 152.26 275.876 154.348 272.708C156.472 275.876 160.504 278.216 166.156 278.9L167.848 275.228ZM160.864 295.028H147.58V292.148H160.864V295.028ZM160.864 288.584H147.58V285.812H142.864V298.7H165.544V285.812H160.864V288.584ZM139.372 280.412V284.156H169.324V280.412H139.372ZM190.201 280.16C190.957 275.984 190.957 272.708 190.957 270.404V268.352H173.929V272.132H186.277C186.241 274.112 186.097 276.524 185.557 279.62L190.201 280.16ZM192.397 281.492C189.301 281.924 185.989 282.176 182.713 282.32V276.056H178.069V282.5C175.909 282.536 173.857 282.536 172.021 282.536L172.453 286.316C178.141 286.28 185.845 286.136 192.685 284.876L192.397 281.492ZM181.597 288.548H176.845V298.52H199.993V294.74H181.597V288.548ZM198.949 276.02V265.904H194.197V290.744H198.949V279.944H202.909V276.02H198.949ZM225.859 280.916H219.379V272.42H225.859V280.916ZM230.539 268.676H214.735V284.66H230.539V268.676ZM223.231 287.756H218.479V298.52H241.051V294.74H223.231V287.756ZM239.863 275.516V265.94H235.111V290.132H239.863V279.404H244.255V275.516H239.863ZM273.34 273.284H255.34V270.368H273.088V266.588H250.624V277.028H273.34V273.284ZM255.052 293.192H273.196V284.408H250.3V287.972H268.516V289.844H250.336V298.808H274.06V295.172H255.052V293.192ZM246.916 278.792V282.536H276.904V278.792H246.916ZM281.833 269.36V273.14H292.885C292.201 280.484 288.529 285.668 280.069 289.736L282.553 293.48C294.325 287.792 297.745 279.512 297.745 269.36H281.833ZM302.821 265.904V299.06H307.609V265.904H302.821ZM142.146 329.652H133.254V317.628H142.146V329.652ZM131.382 329.652H126.054V331.272H149.382V329.652H144.054V317.628H149.382V316.008H126.018V317.628H131.382V329.652ZM123.282 338.544V340.164H152.334V338.544H123.282ZM171.807 338.688V331.956H182.391V330.336H162.087V324.18H181.635V315.108H160.107V316.692H179.763V322.596H160.215V331.956H169.899V338.688H156.399V340.344H185.451V338.688H171.807ZM202.692 320.976V322.596H208.344V331.74H210.216V313.236H208.344V320.976H202.692ZM205.248 328.644C201.252 326.952 198.624 322.92 198.624 319.32V316.908H204.636V315.324H190.38V316.908H196.752V319.32C196.752 323.316 194.016 327.708 189.984 329.544L191.064 331.02C194.304 329.472 196.68 326.448 197.724 323.064C198.804 326.052 201.072 328.752 204.204 330.12L205.248 328.644ZM195.204 335.268H214.392V344.484H216.3V333.648H195.204V335.268ZM214.464 312.516V332.1H216.3V312.516H214.464ZM248.193 330.228H228.501V324.324H247.185V322.74H228.501V317.124H247.869V315.504H226.557V331.848H248.193V330.228ZM222.633 338.508V340.128H251.649V338.508H222.633Z" fill="white"/>
<rect x="103" y="604" width="21" height="21" fill="#EAD9B9"/>
<rect x="244" y="637" width="26" height="25" fill="#EAD9B9"/>
<rect x="157" y="718" width="32" height="31" fill="#EAD9B9"/>
</g>
<defs>
<clipPath id="clip0">
<rect width="375" height="812" fill="white"/>
</clipPath>
</defs>
</svg>
