<svg width="273" height="145" viewBox="0 0 273 145" fill="none" xmlns="http://www.w3.org/2000/svg">
<rect x="184.345" y="8.84857" width="91.4886" height="116.44" rx="16" transform="rotate(15 184.345 8.84857)" fill="#FBCACA"/>
<path fill-rule="evenodd" clip-rule="evenodd" d="M196.522 68.5836C196.522 68.5836 193.688 64.902 192.09 59.3702C190.11 52.5141 200.152 48.8186 202.766 55.4433C203.334 56.8839 203.744 58.5107 203.917 60.3439C205.023 72.0587 196.522 68.5836 196.522 68.5836" fill="#E9E9E9"/>
<path fill-rule="evenodd" clip-rule="evenodd" d="M198.73 68.4949C198.73 68.4949 195.229 64.117 194.361 57.988C193.922 54.8886 197.724 53.0083 199.808 55.2915C201.25 56.8741 202.558 59.1146 203.07 62.2455C204.452 70.699 198.73 68.4949 198.73 68.4949" fill="#EACAC2"/>
<path fill-rule="evenodd" clip-rule="evenodd" d="M226.179 75.0487C226.179 75.0487 230.484 73.3033 234.657 69.3382C239.829 64.4218 233.03 56.1577 227.427 60.5542C226.21 61.5092 225.034 62.7061 223.96 64.2003C217.087 73.7515 226.179 75.0487 226.179 75.0487" fill="#E9E9E9"/>
<path fill-rule="evenodd" clip-rule="evenodd" d="M223.947 74.145C223.947 74.145 229.179 72.1363 233.025 67.2861C234.969 64.8327 232.638 61.2897 229.687 62.2079C227.643 62.8429 225.382 64.1162 223.359 66.5582C217.896 73.1557 223.947 74.145 223.947 74.145" fill="#EACAC2"/>
<path fill-rule="evenodd" clip-rule="evenodd" d="M184.886 72.6666C188.544 59.0122 202.54 50.9004 216.147 54.5463C229.753 58.1919 237.818 72.2151 234.159 85.8694C230.501 99.5226 217.698 103.181 204.092 99.5353C190.486 95.8894 181.227 86.3198 184.886 72.6666" fill="#E9E9E9"/>
<path fill-rule="evenodd" clip-rule="evenodd" d="M188.983 74.2068C191.688 64.1112 203.027 58.3784 214.309 61.4015C225.592 64.4245 232.545 75.0588 229.84 85.1543C227.135 95.2499 216.679 97.6882 205.396 94.6652C194.114 91.6421 186.278 84.3024 188.983 74.2068" fill="#EDDECE"/>
<path d="M209.14 72.4161L208.488 73.001L208.761 73.8303" stroke="#40210F" stroke-width="0.5" stroke-linecap="round"/>
<path fill-rule="evenodd" clip-rule="evenodd" d="M226.797 86.9509C226.039 89.7804 223.183 91.4729 220.417 90.7319C217.653 89.9911 216.024 87.0971 216.783 84.2676C217.541 81.4381 220.398 79.7458 223.162 80.4866C225.928 81.2276 227.555 84.1213 226.797 86.9509" fill="#EACAC2"/>
<path fill-rule="evenodd" clip-rule="evenodd" d="M200.449 79.891C199.691 82.7205 196.835 84.413 194.069 83.672C191.304 82.9309 189.677 80.0372 190.435 77.2077C191.193 74.3782 194.049 72.6856 196.815 73.4267C199.58 74.1678 201.207 77.0614 200.449 79.891" fill="#EACAC2"/>
<path fill-rule="evenodd" clip-rule="evenodd" d="M220.265 73.7756C220.047 74.5865 219.228 75.072 218.436 74.8596C217.642 74.647 217.176 73.8172 217.394 73.0063C217.611 72.1955 218.429 71.7097 219.223 71.9224C220.015 72.1347 220.482 72.9648 220.265 73.7756" fill="#40210F"/>
<path fill-rule="evenodd" clip-rule="evenodd" d="M203.306 69.2313C203.088 70.0421 202.269 70.5276 201.477 70.3153C200.683 70.1026 200.216 69.2726 200.434 68.4617C200.651 67.6508 201.47 67.1653 202.264 67.378C203.056 67.5904 203.523 68.4204 203.306 69.2313" fill="#40210F"/>
<path fill-rule="evenodd" clip-rule="evenodd" d="M202.046 77.4925L214.158 80.738C214.158 80.738 212.079 88.4974 206.301 86.949C199.967 85.2519 202.046 77.4925 202.046 77.4925" fill="#BC173D"/>
<path fill-rule="evenodd" clip-rule="evenodd" d="M209.061 80.7855C208.77 80.9579 207.906 80.7507 207.772 80.4401C207.639 80.1297 208.036 79.0971 208.036 79.0971L209.516 79.4936C209.516 79.4936 209.352 80.6131 209.061 80.7855" fill="#FFFDFD"/>
<path fill-rule="evenodd" clip-rule="evenodd" d="M207.679 80.4151C207.388 80.5875 206.524 80.3803 206.389 80.0696C206.256 79.7593 206.653 78.7266 206.653 78.7266L208.133 79.1232C208.133 79.1232 207.968 80.2423 207.679 80.4151" fill="#FFFDFD"/>
<path fill-rule="evenodd" clip-rule="evenodd" d="M210.243 60.6832C210.243 60.6832 208.203 62.8992 209.101 64.9474C209.101 64.9474 209.893 63.3997 211.575 63.3253C211.575 63.3253 211.982 65.8191 217.133 67.0996C217.133 67.0996 215.698 64.3995 217.451 62.6144C217.451 62.6144 214.754 60.6337 210.243 60.6832" fill="#40210F"/>
<rect x="91" width="92" height="116" rx="16" fill="#9FE5CC"/>
<path fill-rule="evenodd" clip-rule="evenodd" d="M130.596 19.6191C131.199 16.5105 132.177 14.49 133.281 14.49C134.385 14.49 135.363 16.5105 135.967 19.6191C138.167 16.9956 140.163 15.5788 141.166 16.158C142.754 17.0748 141.254 22.6453 137.816 28.6C137.518 29.1176 137.214 29.621 136.908 30.1083C138.533 33.9948 138.989 37.0625 137.846 37.722C137.269 38.0554 136.362 37.7275 135.278 36.8887C134.722 38.459 134.031 39.39 133.281 39.39C132.532 39.39 131.841 38.459 131.285 36.8887C130.2 37.7275 129.294 38.0554 128.716 37.722C127.574 37.0625 128.029 33.9948 129.655 30.1083C129.348 29.621 129.045 29.1176 128.746 28.6C125.308 22.6453 123.808 17.0748 125.396 16.158C126.399 15.5788 128.395 16.9956 130.596 19.6191Z" fill="#27C527"/>
<path d="M154.929 31.9205C153.75 57.5918 145.911 76.2403 139.259 86.7238C136.432 91.1783 130.543 91.3074 127.859 86.7654C119.94 73.3625 112.637 48.5825 111.97 31.4336C111.835 27.9629 114.735 25.28 118.209 25.28L148.44 25.28C152.107 25.28 155.097 28.2572 154.929 31.9205Z" fill="#F98D0B"/>
<rect x="0.536133" y="32.5276" width="91.4886" height="116.44" rx="16" transform="rotate(-15 0.536133 32.5276)" fill="#D1D0F7"/>
<path fill-rule="evenodd" clip-rule="evenodd" d="M38.0984 103.31C34.3639 98.187 39.8995 96.8131 33.2888 76.0588C26.6792 55.3052 49.5176 48.015 49.5176 48.015L51.2928 47.5354L53.07 47.0631C53.07 47.0631 76.4946 41.9572 81.1465 63.2354C85.7986 84.5145 91.2795 82.9365 90.6067 89.2403C90.6067 89.2403 89.2226 97.0719 83.1966 98.6866C77.1707 100.301 71.2666 94.4224 71.2666 94.4224L55.2369 98.2025C55.2369 98.2025 55.018 106.237 49.6323 107.68C44.2475 109.123 38.0984 103.31 38.0984 103.31" fill="#402210"/>
<path fill-rule="evenodd" clip-rule="evenodd" d="M41.0037 77.0462L44.2473 87.6534C44.9481 90.2689 45.4764 92.2403 47.8067 94.5788C51.048 97.8314 57.9626 101.331 65.189 99.3951C71.7336 97.6414 74.1931 93.0308 76.2511 88.978C77.869 85.7925 77.2599 82.4679 76.5549 78.9966C75.741 74.9939 75.4443 68.946 73.7763 65.7056C71.0404 60.3926 64.5079 56.3545 54.3832 59.0674C44.2585 61.7803 39.1995 70.3129 41.0037 77.0462Z" fill="#ECDECE"/>
<path d="M40.832 81.3362C39.2534 75.4448 38.4239 68.7786 38.6691 64.6947L49.6575 54.2879L65.3713 52.9475L75.0221 58.9722L78.1127 74.7911C77.5643 74.1727 75.864 71.5467 71.8574 70.7268C65.784 69.484 64.2789 65.295 62.9907 63.344C61.384 63.7746 62.4992 66.2042 59.2135 70.6705C55.0057 76.3903 47.9663 73.6842 40.832 81.3362Z" fill="#402210"/>
<path d="M58.5059 80.0889L57.7757 81.524L59.0528 82.1298" stroke="#402210" stroke-linecap="round" stroke-linejoin="round"/>
<path d="M55.9092 87.331C58.9643 88.0094 62.1789 87.1896 64.537 85.1305L64.722 84.9696" stroke="#402210" stroke-linecap="round" stroke-linejoin="round"/>
<path fill-rule="evenodd" clip-rule="evenodd" d="M76.7385 82.5356C77.3424 84.7897 75.9694 87.1165 73.6708 87.7324C71.3723 88.3483 69.0207 87.0195 68.4167 84.7654C67.813 82.5123 69.1851 80.1857 71.4837 79.5698C73.7822 78.9539 76.1347 80.2825 76.7385 82.5356" fill="#EACAC2"/>
<path fill-rule="evenodd" clip-rule="evenodd" d="M54.8419 88.4029C55.4459 90.657 54.0728 92.9838 51.7734 93.5999C49.4757 94.2156 47.1232 92.8871 46.5192 90.633C45.9155 88.3798 47.2886 86.053 49.5862 85.4374C51.8857 84.8212 54.2382 86.1498 54.8419 88.4029" fill="#EACAC2"/>
<path fill-rule="evenodd" clip-rule="evenodd" d="M66.69 75.1838C66.8631 75.8298 66.4691 76.4969 65.8095 76.6737C65.1508 76.8502 64.4761 76.4694 64.303 75.8234C64.1297 75.1765 64.5236 74.5094 65.1823 74.3329C65.8419 74.1561 66.5166 74.5369 66.69 75.1838" fill="#402210"/>
<path fill-rule="evenodd" clip-rule="evenodd" d="M52.5943 78.9608C52.7674 79.6068 52.3744 80.2737 51.7148 80.4505C51.0561 80.627 50.3813 80.2461 50.2083 79.6002C50.0349 78.9533 50.4289 78.2861 51.0876 78.1096C51.7472 77.9329 52.421 78.314 52.5943 78.9608" fill="#402210"/>
</svg>
