<svg width="183" height="135" viewBox="0 0 183 135" fill="none" xmlns="http://www.w3.org/2000/svg">
<path fill-rule="evenodd" clip-rule="evenodd" d="M19.5582 33.8462C18.2041 33.8462 16.9629 33.8588 15.8346 33.8838C14.7062 33.9089 13.6406 33.8462 12.6376 33.6958C11.6346 33.5453 10.6065 33.2821 9.55341 32.9059C8.50028 32.5298 7.37192 31.9406 6.16834 31.1382C3.81133 29.5836 2.19402 27.5525 1.31641 25.0451C0.438805 22.5376 0 19.9549 0 17.297C0 14.6391 0.476417 12.1442 1.42925 9.81227C2.38208 7.48033 3.93671 5.4869 6.09312 3.83198C7.84834 2.42781 9.81669 1.39975 11.9982 0.747812C14.1797 0.0958733 16.3737 -0.129798 18.5802 0.0707988C19.5832 0.171097 20.4483 0.258858 21.1755 0.334082C21.9026 0.409305 22.5922 0.522141 23.2441 0.672588C23.8961 0.823036 24.548 1.02363 25.1999 1.27438C25.8519 1.52512 26.6292 1.85109 27.5319 2.25229C30.5408 3.85706 32.6847 6.06362 33.9635 8.87197C35.2423 11.6803 35.7313 15.0403 35.4304 18.9519C35.1295 23.9669 33.7127 27.703 31.1802 30.1603C28.6477 32.6176 24.7737 33.8462 19.5582 33.8462ZM52.7318 34.5232C52.0297 34.9244 51.3276 35.125 50.6255 35.125C49.773 35.125 48.9455 34.8492 48.1432 34.2976C47.5414 33.8964 47.1151 33.3949 46.8644 32.7931C46.5635 32.2415 46.3629 31.6898 46.2626 31.1382C46.1623 30.5865 46.087 30.0349 46.0369 29.4833V21.8857H44.2315C42.7772 21.7854 41.4733 21.6976 40.3199 21.6224C39.1665 21.5472 38.2638 21.0081 37.6118 20.0051C37.3109 19.5036 37.1605 18.8767 37.1605 18.1245C37.1605 17.3722 37.2106 16.7203 37.3109 16.1687C37.4614 15.617 37.7372 15.1531 38.1384 14.777C38.5396 14.4009 39.2417 14.0875 40.2447 13.8367C40.4453 13.7866 40.8214 13.749 41.373 13.7239C41.9247 13.6988 42.5139 13.6612 43.1408 13.6111C43.7676 13.5609 44.3569 13.5233 44.9085 13.4982C45.4602 13.4732 45.8363 13.4606 46.0369 13.4606V6.99138C45.9867 6.43974 45.9742 5.8881 45.9993 5.33646C46.0244 4.78482 46.1121 4.23318 46.2626 3.68154C46.3629 3.28034 46.4632 2.90422 46.5635 2.55318C46.6638 2.20214 46.8894 1.82602 47.2405 1.42483C47.6417 0.923334 48.2058 0.57229 48.933 0.371693C49.6602 0.171097 50.45 0.120948 51.3026 0.221246C52.9073 0.471992 53.9354 1.09886 54.3867 2.10184C54.6876 2.70363 54.8757 3.44333 54.9509 4.32094C55.0186 5.11079 55.0558 5.62644 55.0626 5.86791L55.0637 30.4612H54.9885C54.9885 30.5113 54.9634 30.6868 54.9133 30.9877C54.8631 31.2886 54.7628 31.6522 54.6124 32.0785C54.4619 32.5047 54.2363 32.9435 53.9354 33.3949C53.6345 33.8462 53.2333 34.2224 52.7318 34.5232ZM19.7838 25.6845C18.7307 25.8098 17.6776 25.8224 16.6244 25.7221C15.0698 25.5716 13.7785 25.1955 12.7504 24.5937C11.7224 23.9919 10.92 23.2522 10.3433 22.3746C9.76654 21.497 9.39042 20.5191 9.2149 19.4409C9.03938 18.3627 9.02684 17.297 9.17729 16.2439C9.42803 14.6893 10.0048 13.423 10.9074 12.4451C11.8101 11.4672 12.8632 10.74 14.0668 10.2636C15.2704 9.78719 16.5492 9.54898 17.9032 9.54898C19.2573 9.54898 20.511 9.74958 21.6644 10.1508C22.7176 10.552 23.5701 11.0785 24.222 11.7305C24.874 12.3824 25.3629 13.1221 25.6889 13.9496C26.0149 14.777 26.228 15.6797 26.3283 16.6576C26.4286 17.6355 26.4787 18.6761 26.4787 19.7794C26.1778 21.0331 25.7014 22.0737 25.0495 22.9012C24.3975 23.7286 23.6202 24.368 22.7176 24.8194C21.8149 25.2707 20.837 25.5591 19.7838 25.6845ZM51.1145 60.7011C50.5378 60.7512 49.9736 60.7763 49.422 60.7763L10.2304 60.6259C9.57848 60.5757 8.87639 60.5506 8.12416 60.5506C7.37192 60.5506 6.71998 60.35 6.16834 59.9489C6.11819 59.9489 6.04297 59.8987 5.94267 59.7984C5.44118 59.3972 5.10267 58.808 4.92715 58.0306C4.75163 57.2533 4.66387 56.5889 4.66387 56.0372C4.61372 55.1345 4.55103 54.2318 4.47581 53.3292C4.40059 52.4265 4.36297 51.5489 4.36297 50.6963V46.8599C4.36297 45.6062 4.48835 44.3525 4.73909 43.0987C4.88954 42.2964 5.14029 41.657 5.49133 41.1805C5.84237 40.7041 6.39401 40.3155 7.14625 40.0146C8.55043 39.4629 9.9546 39.1871 11.3588 39.1871H46.7891C47.742 39.2373 48.7199 39.3125 49.7229 39.4128C50.7258 39.5131 51.6787 39.7638 52.5814 40.165C53.5843 40.5662 54.2488 41.2307 54.5748 42.1585C54.9008 43.0862 55.1139 44.0516 55.2142 45.0546C55.2643 45.9071 55.3019 46.8975 55.327 48.0259C55.3521 49.1543 55.3396 50.2951 55.2894 51.4486C55.2393 52.602 55.164 53.7429 55.0637 54.8713C54.9634 55.9996 54.7879 57.0151 54.5372 57.9178C54.3867 58.4695 54.2112 58.9584 54.0106 59.3847C53.81 59.8109 53.4088 60.1244 52.807 60.325C52.2554 60.5256 51.6912 60.6509 51.1145 60.7011ZM43.0279 52.7274C42.4262 52.7274 41.8494 52.7023 41.2978 52.6522C40.6459 52.602 39.9689 52.5519 39.2668 52.5017H15.7218C15.3707 52.5519 15.0698 52.5769 14.8191 52.5769C14.5683 52.5769 14.3301 52.5644 14.1044 52.5393C13.8788 52.5142 13.7158 52.4516 13.6155 52.3513C13.465 52.251 13.3773 52.088 13.3522 51.8623C13.3271 51.6366 13.3146 51.3984 13.3146 51.1477C13.3146 50.9972 13.3271 50.8719 13.3522 50.7716C13.3773 50.6713 13.3647 50.571 13.3146 50.4707V49.5304C13.3146 49.2044 13.3647 48.8659 13.465 48.5149C13.5653 48.0635 13.7283 47.8253 13.954 47.8002C14.1797 47.7752 14.4931 47.7626 14.8943 47.7626C15.9976 47.7125 17.0758 47.6749 18.1289 47.6498C19.182 47.6247 20.2602 47.6623 21.3635 47.7626H42.2757C42.7772 47.7125 43.3414 47.6999 43.9682 47.725C44.5951 47.7501 45.0841 47.9632 45.4351 48.3644C45.736 48.7656 45.8865 49.2295 45.8865 49.756C45.8865 50.2826 45.8614 50.7465 45.8112 51.1477C45.7611 51.599 45.6859 51.9375 45.5856 52.1632C45.4853 52.3889 45.1844 52.5268 44.6829 52.5769C44.1814 52.6772 43.6297 52.7274 43.0279 52.7274ZM111.933 60.2497C111.331 60.9518 110.529 61.3029 109.526 61.3029L109.375 61.2277C108.172 61.1775 107.206 60.8265 106.479 60.1745C105.752 59.5226 105.2 58.7202 104.824 57.7674C104.448 56.8145 104.21 55.8241 104.11 54.796C104.009 53.768 103.959 52.8528 103.959 52.0504V6.65287C103.959 6.2266 104.009 5.72511 104.11 5.1484C104.21 4.57168 104.373 3.96989 104.599 3.34303C104.824 2.71617 105.138 2.20214 105.539 1.80094C105.89 1.4499 106.404 1.18662 107.081 1.01109C107.758 0.835573 108.372 0.747812 108.924 0.747812C110.027 0.747812 110.955 1.12393 111.707 1.87617C112.409 2.57825 112.823 3.31795 112.948 4.09527C113.074 4.87258 113.187 5.6875 113.287 6.54004C113.337 6.74063 113.362 7.04153 113.362 7.44272C113.462 8.29526 113.525 9.17286 113.55 10.0755C113.575 10.9782 113.613 11.8809 113.663 12.7836C113.663 13.3352 113.676 13.8743 113.701 14.4009C113.726 14.9275 113.738 15.4666 113.738 16.0182C113.688 16.3191 113.676 16.6075 113.701 16.8833C113.726 17.1591 113.738 17.4224 113.738 17.6731V22.7131C113.738 23.014 113.788 23.2898 113.889 23.5406C113.889 23.5852 114.087 23.6099 114.483 23.6149L115.468 23.6158C115.92 23.7161 116.271 23.7412 116.521 23.691H116.672C116.923 23.691 117.161 23.7161 117.387 23.7663C117.612 23.8164 117.85 23.8415 118.101 23.8415C118.352 23.8916 118.628 23.9292 118.929 23.9543C119.23 23.9794 119.53 24.017 119.831 24.0672C120.383 24.1675 120.935 24.3555 121.486 24.6313C122.038 24.9072 122.439 25.3209 122.69 25.8725C123.041 26.4242 123.216 27.0761 123.216 27.8283C123.216 28.2295 123.204 28.5931 123.179 28.9191C123.154 29.2451 123.091 29.6086 122.991 30.0098C122.89 30.411 122.778 30.8373 122.652 31.2886C122.527 31.74 122.289 32.091 121.938 32.3418C121.236 32.8433 120.558 33.1692 119.907 33.3197C119.104 33.42 118.126 33.445 116.973 33.3949C115.819 33.3447 114.841 33.3447 114.039 33.3949C113.989 33.3949 113.939 33.42 113.889 33.4701H113.813L113.738 33.5453V43.2492C113.839 45.8569 113.839 48.4146 113.738 50.922V51.9751C113.738 52.6271 113.726 53.3417 113.701 54.119C113.676 54.8963 113.613 55.6611 113.513 56.4133C113.412 57.1656 113.237 57.8802 112.986 58.5572C112.735 59.2342 112.384 59.7984 111.933 60.2497ZM87.8891 57.8421C87.9931 57.8396 88.3349 57.8273 88.9144 57.805C89.5663 57.7799 90.281 57.6796 91.0583 57.5041C91.8356 57.3286 92.6129 57.0653 93.3902 56.7142C94.1675 56.3632 94.7568 55.8868 95.158 55.285C95.4589 54.7835 95.6971 54.1566 95.8726 53.4044C96.0481 52.6522 96.186 51.925 96.2863 51.2229C96.3866 50.5208 96.4493 49.9065 96.4744 49.3799C96.4995 48.8534 96.512 48.565 96.512 48.5149V10.3764C96.512 9.62421 96.4117 8.77167 96.2111 7.81884C96.0105 6.866 95.6218 5.97586 95.0451 5.1484C94.4684 4.32094 93.6786 3.61885 92.6756 3.04213C91.6726 2.46542 90.3687 2.17706 88.764 2.17706L88.0493 2.13945C87.5729 2.11438 87.0463 2.10184 86.4696 2.10184H84.1001C82.5956 2.15199 81.1287 2.16452 79.6995 2.13945C78.2702 2.11438 76.7532 2.10184 75.1485 2.10184C74.2458 2.10184 73.2553 2.06423 72.1771 1.989C71.0989 1.91378 70.0458 1.93885 69.0177 2.06423C67.9897 2.1896 67.0494 2.47796 66.1968 2.9293C65.3443 3.38064 64.6673 4.1078 64.1658 5.11079C63.7646 5.91317 63.4888 6.90362 63.3383 8.08212C63.1879 9.26063 63.1127 10.4141 63.1127 11.5424C63.1127 12.6708 63.1503 13.6737 63.2255 14.5514C63.2597 14.9503 63.2861 15.2741 63.3048 15.5227L63.3234 15.7851C63.3334 15.936 63.3383 16.0387 63.3383 16.0934V43.174C63.2882 44.9292 63.3007 46.7095 63.376 48.5149C63.4512 50.3202 63.8398 52.0504 64.5419 53.7053C64.9431 54.6581 65.5825 55.4104 66.4601 55.962C67.3377 56.5136 68.278 56.9274 69.281 57.2032C70.284 57.479 71.2494 57.6545 72.1771 57.7298C73.1049 57.805 73.7944 57.8426 74.2458 57.8426L87.8891 57.8421ZM74.6971 48.3644L81.6929 48.4396C82.2947 48.3895 82.8965 48.3268 83.4983 48.2516C84.1001 48.1763 84.6517 47.9883 85.1532 47.6874C85.7048 47.3865 86.0057 46.8599 86.0559 46.1077C86.106 45.3555 86.106 44.6283 86.0559 43.9262V18.8015C86.0559 18.1496 86.0308 17.5227 85.9807 16.9209C85.9305 16.3693 85.8929 15.8176 85.8678 15.266C85.8428 14.7143 85.8051 14.2379 85.755 13.8367C85.6547 12.8839 85.3162 12.2946 84.7395 12.069C84.1628 11.8433 83.724 11.7305 83.4231 11.7305H83.3478L76.9538 11.58C75.7503 11.58 74.8726 11.7555 74.321 12.1066C73.7694 12.4576 73.3682 12.9842 73.1174 13.6863C73.0673 13.937 73.0297 14.3006 73.0046 14.777C72.9795 15.2534 72.967 15.7549 72.967 16.2815V46.4086C73.0171 46.8098 73.1801 47.211 73.4559 47.6122C73.7317 48.0134 74.1455 48.2641 74.6971 48.3644ZM174.669 60.7763C175.321 60.8766 175.948 60.8766 176.55 60.7763C177.152 60.676 177.678 60.4503 178.13 60.0993C178.531 59.9489 178.832 59.7733 179.032 59.5727C179.233 59.3721 179.434 59.1966 179.634 59.0462C179.734 58.7954 179.835 58.5823 179.935 58.4068C180.035 58.2312 180.136 58.0181 180.236 57.7674C180.587 57.2659 180.763 56.6139 180.763 55.8116C180.863 55.4104 180.913 54.9841 180.913 54.5327V53.1035C180.913 52.4014 180.888 51.6617 180.838 50.8844C180.788 50.1071 180.813 49.3172 180.913 48.5149V39.9394C181.013 38.9865 181.063 38.0086 181.063 37.0056V18.2749C181.063 17.2218 181.013 16.1937 180.913 15.1908V10.3012C180.813 9.74958 180.763 9.16033 180.763 8.53346V6.76571C180.763 6.21407 180.687 5.66243 180.537 5.11079C180.386 4.55915 180.186 4.0075 179.935 3.45586C179.634 2.70363 179.158 2.07676 178.506 1.57527C178.105 1.32453 177.703 1.149 177.302 1.04871C176.901 0.948408 176.5 0.898259 176.099 0.898259H175.008C174.682 0.898259 174.343 0.948408 173.992 1.04871C173.591 1.19915 173.04 1.52512 172.337 2.02661C171.585 2.87915 171.134 3.98243 170.983 5.33646C170.833 6.13884 170.745 6.866 170.72 7.51794C170.695 8.16988 170.683 8.82182 170.683 9.47376L170.833 54.0814V54.9089C170.833 55.0593 170.858 55.2599 170.908 55.5107C170.958 55.7614 171.034 56.0121 171.134 56.2629C171.134 56.6139 171.184 56.9399 171.284 57.2408C171.385 57.5417 171.51 57.8677 171.66 58.2187C172.011 59.0211 172.388 59.5477 172.789 59.7984C173.19 60.2497 173.817 60.5757 174.669 60.7763ZM147.401 36.5543C147.175 36.5543 146.937 36.6044 146.686 36.7047H144.693C144.467 36.7047 144.229 36.6546 143.978 36.5543H143.038C142.712 36.5543 142.398 36.5041 142.098 36.4038C141.696 36.4038 141.333 36.3788 141.007 36.3286C140.681 36.2785 140.342 36.2534 139.991 36.2534C138.637 36.0528 137.333 35.6516 136.08 35.0498C135.378 34.6988 134.726 34.3603 134.124 34.0343C133.522 33.7083 132.945 33.2946 132.394 32.7931C130.388 31.3889 128.958 29.383 128.106 26.7752C127.604 25.4713 127.266 24.2176 127.09 23.014C126.915 21.8104 126.827 20.5818 126.827 19.3281C126.827 18.0242 126.94 16.8081 127.166 15.6797C127.391 14.5514 127.705 13.4355 128.106 12.3323C128.607 11.2791 129.147 10.2887 129.723 9.36092C130.3 8.43316 130.99 7.61824 131.792 6.91615C132.594 6.06362 133.434 5.33646 134.312 4.73467C135.189 4.13288 136.205 3.63139 137.358 3.23019C138.361 2.7287 139.452 2.36512 140.631 2.13945C141.809 1.91378 143.05 1.80094 144.354 1.80094C145.257 1.6505 146.135 1.6505 146.987 1.80094C147.388 1.80094 147.827 1.82602 148.303 1.87617C148.78 1.92632 149.219 2.00154 149.62 2.10184C149.821 2.20214 150.034 2.25229 150.259 2.25229C150.485 2.25229 150.723 2.30243 150.974 2.40273C151.225 2.40273 151.463 2.44034 151.689 2.51557C151.914 2.59079 152.102 2.67855 152.253 2.77885C152.804 2.9293 153.318 3.09228 153.795 3.26781C154.271 3.44333 154.76 3.65646 155.262 3.90721C156.114 4.3084 156.967 4.75974 157.819 5.26123C158.12 5.41168 158.459 5.63735 158.835 5.93825C159.211 6.23914 159.575 6.56511 159.926 6.91615C160.828 7.81884 161.555 8.7466 162.107 9.69943C162.408 10.2009 162.671 10.7275 162.897 11.2791C163.123 11.8308 163.286 12.4326 163.386 13.0845C163.536 13.6361 163.662 14.2003 163.762 14.777C163.862 15.3537 163.963 15.9179 164.063 16.4696C164.163 17.0212 164.238 17.5728 164.289 18.1245C164.339 18.6761 164.314 19.2779 164.213 19.9299C164.213 20.2307 164.188 20.5693 164.138 20.9454C164.088 21.3215 164.063 21.66 164.063 21.9609C163.963 22.3621 163.887 22.7633 163.837 23.1645C163.787 23.5657 163.687 23.9167 163.536 24.2176C163.235 26.1734 162.609 27.9788 161.656 29.6337C161.104 30.4862 160.49 31.2385 159.813 31.8904C159.136 32.5424 158.371 33.1692 157.518 33.771C156.866 34.1722 156.215 34.5232 155.563 34.8241C154.911 35.125 154.234 35.3507 153.532 35.5012C152.88 35.7018 152.215 35.8647 151.538 35.9901C150.861 36.1155 150.172 36.2534 149.469 36.4038C149.219 36.5041 148.968 36.5543 148.717 36.5543H147.401ZM146.536 28.054C145.834 28.054 145.119 28.0039 144.392 27.9036C143.665 27.8033 142.95 27.6277 142.248 27.377C140.292 26.6248 138.813 25.4713 137.81 23.9167C137.409 23.1645 137.083 22.1866 136.832 20.983C136.681 19.9299 136.681 18.9269 136.832 17.974C137.032 17.2218 137.246 16.5322 137.471 15.9054C137.697 15.2785 138.01 14.7143 138.412 14.2129C138.813 13.6612 139.264 13.2224 139.766 12.8964C140.267 12.5705 140.794 12.2821 141.345 12.0314C141.897 11.7806 142.474 11.6051 143.075 11.5048C143.677 11.4045 144.304 11.3544 144.956 11.3544C146.31 11.3544 147.639 11.5048 148.943 11.8057C149.194 11.906 149.432 12.0063 149.658 12.1066C149.883 12.2069 150.096 12.3323 150.297 12.4827C150.698 12.6332 151.099 12.8338 151.501 13.0845C151.952 13.3854 152.253 13.7114 152.403 14.0624C152.604 14.1627 152.754 14.3006 152.855 14.4761C152.955 14.6517 153.08 14.8146 153.231 14.9651C153.381 15.2158 153.544 15.5042 153.72 15.8302C153.895 16.1561 154.033 16.4946 154.133 16.8457C154.384 17.6982 154.547 18.5006 154.622 19.2528C154.698 20.0051 154.635 20.8075 154.434 21.66C154.284 22.2116 154.133 22.7382 153.983 23.2397C153.832 23.7412 153.582 24.2678 153.231 24.8194C152.579 25.8725 151.776 26.6248 150.824 27.0761C150.472 27.2265 150.134 27.377 149.808 27.5274C149.482 27.6779 149.143 27.7531 148.792 27.7531C148.391 27.8534 148.015 27.9036 147.664 27.9036C147.313 27.9036 146.937 27.9537 146.536 28.054ZM152.366 52.953C151.488 52.953 150.573 53.0032 149.62 53.1035H144.354C143.452 53.0032 142.649 52.953 141.947 52.953H131.942C131.441 52.953 130.964 52.928 130.513 52.8778C130.062 52.8277 129.585 52.7525 129.084 52.6522C128.833 52.5519 128.595 52.4641 128.369 52.3889C128.144 52.3136 127.905 52.2259 127.655 52.1256C127.203 51.9751 126.777 51.7495 126.376 51.4486C126.075 51.0975 125.837 50.7089 125.661 50.2826C125.486 49.8563 125.398 49.3172 125.398 48.6653C125.398 47.7125 125.724 46.8599 126.376 46.1077C126.677 45.6564 127.153 45.3555 127.805 45.205C128.106 45.1047 128.407 45.0169 128.708 44.9417C129.009 44.8665 129.284 44.7787 129.535 44.6784C129.886 44.5781 130.162 44.528 130.363 44.528H160.828C161.28 44.528 161.706 44.5781 162.107 44.6784C162.508 44.6784 162.884 44.7035 163.235 44.7537C163.586 44.8038 163.963 44.879 164.364 44.9793C165.016 45.1799 165.592 45.4558 166.094 45.8068C166.595 46.3083 166.984 46.8098 167.26 47.3113C167.536 47.8128 167.674 48.3644 167.674 48.9662C167.674 49.8187 167.398 50.571 166.846 51.2229C166.345 51.8748 165.793 52.3011 165.191 52.5017C164.94 52.602 164.69 52.6772 164.439 52.7274C164.188 52.7775 163.937 52.8026 163.687 52.8026C163.386 52.9029 163.11 52.953 162.859 52.953H152.366ZM52.1802 134.85C52.8321 135 53.484 135.038 54.136 134.962C54.7879 134.887 55.3897 134.674 55.9413 134.323C56.5933 133.872 57.0697 133.32 57.3706 132.668C57.8721 131.615 58.1604 130.487 58.2357 129.283C58.3109 128.079 58.3485 126.826 58.3485 125.522L58.3497 105.372C58.3552 102.215 58.3798 98.9146 58.4237 95.47C58.4739 91.5332 58.4488 87.6592 58.3485 83.8479V83.4718C58.2984 82.3183 58.2482 81.19 58.1981 80.0867C58.1479 78.9834 57.8972 77.9052 57.4458 76.8521C57.1449 76.0497 56.6434 75.4103 55.9413 74.9339C55.2393 74.4575 54.4619 74.2193 53.6094 74.2193C52.9073 74.2193 52.3306 74.2819 51.8793 74.4073C51.4279 74.5327 50.9264 74.8461 50.3748 75.3476C50.0238 75.6987 49.7605 76.1751 49.5849 76.7769C49.4094 77.3787 49.2715 78.0181 49.1712 78.6951C49.0709 79.3721 49.0208 80.0742 49.0208 80.8013V128.305C49.0208 128.957 49.0458 129.634 49.096 130.336C49.1461 131.038 49.2715 131.69 49.4721 132.292C49.6727 132.894 49.9861 133.433 50.4124 133.909C50.8387 134.386 51.4279 134.699 52.1802 134.85ZM42.9277 134.022C42.3259 134.524 41.4733 134.774 40.37 134.774C40.0691 134.774 39.693 134.737 39.2417 134.661C38.7903 134.586 38.4393 134.448 38.1886 134.248C37.6871 133.947 37.2984 133.483 37.0226 132.856C36.7468 132.229 36.5336 131.565 36.3832 130.863C36.2327 130.161 36.145 129.471 36.1199 128.794C36.0948 128.117 36.0823 127.553 36.0823 127.102L29.3874 126.951C28.936 126.951 28.4722 126.926 27.9957 126.876C27.5193 126.826 27.068 126.7 26.6417 126.5C26.2155 126.299 25.8519 125.986 25.551 125.559C25.2501 125.133 25.0746 124.544 25.0244 123.792C24.9241 122.889 24.9868 122.049 25.2125 121.272C25.4381 120.494 26.1277 119.83 27.2811 119.278C27.7325 119.028 28.2966 118.877 28.9737 118.827C29.6507 118.777 30.2399 118.777 30.7414 118.827H36.0823V79.8987C36.0823 79.2216 36.1575 78.5572 36.308 77.9052C36.4083 77.6545 36.496 77.4288 36.5712 77.2282C36.6465 77.0276 36.7342 76.8019 36.8345 76.5512C37.1354 76.0497 37.4363 75.661 37.7372 75.3852C38.0381 75.1094 38.4644 74.8712 39.016 74.6706C39.2668 74.5703 39.53 74.5076 39.8059 74.4825C40.0817 74.4575 40.345 74.4449 40.5957 74.4449C42.2506 74.4449 43.5044 75.1972 44.3569 76.7016C44.5575 77.0025 44.6954 77.4288 44.7706 77.9804C44.8459 78.5321 44.9085 79.0963 44.9587 79.673C45.0088 80.2497 45.0339 80.7512 45.0339 81.1775V126.274C45.0339 127.528 44.9963 128.531 44.9211 129.283C44.8459 130.035 44.6076 130.988 44.2065 132.141C43.9557 132.894 43.5294 133.521 42.9277 134.022ZM26.0023 105.437C27.0053 105.337 27.9205 104.961 28.748 104.309C29.5754 103.657 29.9892 102.729 29.9892 101.525V83.6222C29.9892 82.9201 29.9516 81.9924 29.8763 80.839C29.8011 79.6855 29.5629 78.8079 29.1617 78.2061C28.9611 77.8049 28.7104 77.479 28.4095 77.2282C28.1086 76.9775 27.8328 76.7267 27.582 76.476C27.4316 76.4258 27.3062 76.3882 27.2059 76.3631C27.1056 76.3381 27.0053 76.3255 26.905 76.3255C26.7044 76.2252 26.3534 76.1751 25.8519 76.1751C25.5008 76.1249 25.1498 76.0999 24.7987 76.0999H23.8961C23.545 76.0999 23.194 76.0873 22.8429 76.0622C22.4919 76.0372 22.1408 76.0246 21.7898 76.0246H20.1349C19.9343 75.9745 19.4829 75.9619 18.7808 75.987C18.0788 76.0121 17.6023 76.0246 17.3516 76.0246L13.1183 76.0239C12.6056 76.0208 11.9731 76.0085 11.2209 75.987C10.3433 75.9619 9.62863 75.9494 9.07699 75.9494C8.27461 75.9996 7.59759 76.0372 7.04595 76.0622C6.49431 76.0873 5.79222 76.2252 4.93969 76.476C4.3379 76.7267 3.71104 77.1279 3.0591 77.6796C2.40716 78.2312 2.08119 78.9834 2.08119 79.9363C2.08119 80.9392 2.3194 81.9172 2.79581 82.87C3.27223 83.8228 4.18745 84.3494 5.54148 84.4497C6.24357 84.4998 6.85789 84.5374 7.38446 84.5625C7.91102 84.5876 8.41252 84.6001 8.88893 84.6001H12.0859C13.2895 84.7004 14.7188 84.738 16.3737 84.713C18.0286 84.6879 19.4579 84.7004 20.6614 84.7506L20.8119 90.3924C18.6555 90.2921 16.311 90.267 13.7785 90.3171C11.2459 90.3673 8.92654 90.4174 6.82028 90.4676C5.5164 90.5177 4.42566 90.8437 3.54805 91.4455C2.67044 92.0473 2.23164 93.0753 2.23164 94.5297C2.23164 95.3822 2.62029 96.2347 3.3976 97.0873C4.17491 97.9398 5.36596 98.3661 6.97073 98.3661H20.8119L20.8871 101.3C20.8871 102.002 21.0376 102.629 21.3385 103.18C21.6393 103.732 22.0405 104.183 22.542 104.534C23.0435 104.885 23.6077 105.136 24.2346 105.287C24.8614 105.437 25.4507 105.487 26.0023 105.437ZM19.5707 132.969C18.6429 134.022 17.4268 134.499 15.9223 134.398C14.7689 134.298 13.7158 133.959 12.763 133.383C11.8101 132.806 11.3086 131.565 11.2585 129.659L11.0328 117.097C10.1301 117.047 9.23998 117.009 8.36237 116.984C7.48476 116.959 6.56954 116.921 5.6167 116.871C4.91461 116.821 4.21253 116.683 3.51044 116.457C2.80835 116.232 2.15641 115.768 1.55462 115.066C0.952833 114.414 0.651939 113.536 0.651939 112.433C0.651939 111.279 0.952833 110.327 1.55462 109.574C1.90567 109.123 2.34447 108.797 2.87104 108.596C3.3976 108.396 3.92417 108.245 4.45073 108.145C4.9773 108.045 5.42864 107.995 5.80476 107.995H26.0775C27.0805 107.995 27.9331 108.032 28.6352 108.108C29.3372 108.183 30.0644 108.622 30.8166 109.424C31.268 109.925 31.5814 110.439 31.7569 110.966C31.9325 111.493 32.0202 112.082 32.0202 112.734C32.0202 114.439 31.3181 115.592 29.914 116.194C29.0113 116.595 28.071 116.846 27.0931 116.946C26.1152 117.047 25.1498 117.122 24.197 117.172C23.6453 117.222 23.1187 117.247 22.6173 117.247H21.0376L20.9623 129.133C20.9623 130.637 20.4985 131.916 19.5707 132.969ZM111.482 114.426C112.184 114.502 112.911 114.364 113.663 114.013C114.716 113.511 115.381 112.847 115.656 112.019C115.932 111.192 115.957 110.314 115.732 109.386C115.506 108.459 115.117 107.543 114.566 106.641C114.014 105.738 113.437 104.986 112.836 104.384C111.03 102.478 109.275 100.535 107.57 98.5541C105.865 96.5732 104.135 94.6049 102.379 92.6491C101.878 92.0974 101.439 91.5458 101.063 90.9941C100.687 90.4425 100.298 89.8658 99.8971 89.264C99.5962 88.8628 99.383 88.2861 99.2577 87.5339C99.1323 86.7816 99.032 85.9918 98.9568 85.1643C98.8815 84.3368 98.8314 83.5219 98.8063 82.7195C98.7812 81.9172 98.7436 81.2903 98.6935 80.8389C98.5932 79.6855 98.2797 78.6825 97.7532 77.83C97.2266 76.9775 96.3866 76.3757 95.2332 76.0246C94.4308 75.7739 93.478 75.7363 92.3747 75.9118C91.2714 76.0873 90.3938 76.476 89.7419 77.0778C89.3407 77.479 88.9645 78.0807 88.6135 78.8831C88.2625 79.6855 88.0368 80.538 87.9365 81.4407C87.8362 82.1428 87.7735 82.9452 87.7484 83.8479C87.7234 84.7506 87.6857 85.578 87.6356 86.3303C87.5854 87.233 87.5604 88.1356 87.5604 89.0383C86.8081 89.941 86.081 90.8437 85.3789 91.7464C84.7771 92.4986 84.1252 93.2634 83.4231 94.0407C82.721 94.818 82.0941 95.4323 81.5425 95.8837C79.8374 97.3882 78.195 98.9302 76.6153 100.51C75.0356 102.09 73.4935 103.757 71.9891 105.512C71.5879 105.964 71.2118 106.465 70.8607 107.017C70.5097 107.568 70.2213 108.133 69.9956 108.709C69.77 109.286 69.6571 109.875 69.6571 110.477C69.6571 111.079 69.8577 111.681 70.2589 112.282C70.8106 113.035 71.613 113.561 72.6661 113.862C73.7192 114.163 74.6971 114.188 75.5998 113.937C76.4022 113.737 77.1294 113.411 77.7813 112.959C78.4332 112.508 79.0601 112.019 79.6619 111.493C80.2637 110.966 80.8529 110.452 81.4296 109.951C82.0064 109.449 82.5705 108.998 83.1222 108.596L93.4278 99.1183L106.065 111.079C106.517 111.58 107.031 112.082 107.607 112.583C108.184 113.085 108.799 113.499 109.45 113.825C110.102 114.15 110.779 114.351 111.482 114.426ZM80.4517 130.411C77.0165 130.462 74.1706 130.436 71.9138 130.336C71.1115 130.286 70.3216 130.173 69.5443 129.998C68.767 129.822 68.0774 129.571 67.4756 129.245C66.8739 128.919 66.3849 128.456 66.0088 127.854C65.6327 127.252 65.4446 126.45 65.4446 125.447C65.4446 124.444 65.7706 123.566 66.4225 122.814C66.8237 122.413 67.3252 122.112 67.927 121.911C68.5288 121.71 69.1055 121.56 69.6571 121.46C70.2088 121.359 70.6977 121.309 71.124 121.309H71.8386L112.986 121.385C114.29 121.385 115.481 121.397 116.559 121.422C117.637 121.447 118.603 121.811 119.455 122.513C120.508 123.466 121.035 124.544 121.035 125.747C121.035 126.5 120.809 127.189 120.358 127.816C119.907 128.443 119.305 128.882 118.553 129.133C117.55 129.534 116.509 129.81 115.431 129.96C114.353 130.11 113.287 130.211 112.234 130.261C108.573 130.411 104.962 130.462 101.402 130.411C97.8409 130.361 94.3807 130.336 91.0207 130.336C87.4099 130.336 83.8869 130.361 80.4517 130.411ZM169.73 114.84C170.883 114.84 172.062 114.74 173.265 114.539C174.469 114.339 175.622 113.937 176.726 113.336C177.428 112.985 177.967 112.496 178.343 111.869C178.719 111.242 178.932 110.577 178.982 109.875C179.032 109.173 178.92 108.484 178.644 107.807C178.368 107.13 177.904 106.565 177.252 106.114C177.102 106.014 176.964 105.939 176.838 105.888C176.713 105.838 176.575 105.788 176.425 105.738C175.622 105.487 174.82 105.337 174.017 105.287C173.215 105.236 172.413 105.211 171.61 105.211C171.209 105.211 170.858 105.224 170.557 105.249C170.256 105.274 169.905 105.287 169.504 105.287L165.492 105.286C165.158 105.284 164.539 105.272 163.637 105.249C162.634 105.224 161.455 105.211 160.101 105.211L150.805 105.212C149.684 105.215 148.683 105.228 147.802 105.249C146.961 105.27 146.38 105.282 146.059 105.285L145.583 105.287C144.58 105.287 143.69 105.236 142.912 105.136C142.135 105.036 141.571 104.885 141.22 104.685C141.17 104.685 141.12 104.71 141.069 104.76C141.019 104.81 140.969 104.848 140.919 104.873C140.869 104.898 140.831 104.86 140.806 104.76C140.781 104.66 140.769 104.434 140.769 104.083V100.999L140.773 101.045L140.806 101.413C140.83 101.679 140.843 101.875 140.844 102.001L140.843 101.837C140.839 101.588 140.814 101.008 140.769 100.096C141.471 100.146 142.148 100.171 142.8 100.171L156.2 100.17C158.531 100.165 161.035 100.14 163.712 100.096H172.739C173.892 100.096 174.883 99.7828 175.71 99.1559C176.537 98.5291 176.951 97.7141 176.951 96.7111C177.051 95.9088 177.001 95.0688 176.801 94.1912C176.6 93.3135 176.124 92.6491 175.371 92.1977C174.87 91.8968 174.331 91.6962 173.754 91.5959C173.177 91.4956 172.613 91.4455 172.062 91.4455H170.031C169.78 91.4956 169.529 91.5082 169.278 91.4831C169.028 91.458 168.777 91.4455 168.526 91.4455H161.229C157.97 91.4956 154.961 91.5207 152.203 91.5207L144.815 91.5197C143.99 91.5162 143.243 91.504 142.574 91.4831C141.772 91.458 141.17 91.4455 140.769 91.4455V86.9321H172.964C174.068 86.9321 175.096 86.5434 176.049 85.7661C177.001 84.9888 177.553 84.0736 177.703 83.0204C177.804 82.1679 177.779 81.4157 177.628 80.7637C177.528 80.3124 177.377 79.8736 177.177 79.4473C176.976 79.021 176.751 78.6324 176.5 78.2813C176.149 77.8801 175.748 77.6043 175.296 77.4539C174.845 77.3034 174.394 77.1781 173.942 77.0778C173.491 76.9273 173.027 76.827 172.551 76.7769C172.074 76.7267 171.61 76.7016 171.159 76.7016H171.009C170.758 76.7518 170.494 76.7643 170.219 76.7393C169.943 76.7142 169.68 76.7016 169.429 76.7016H136.932C136.531 76.7518 136.18 76.7769 135.879 76.7769C135.578 76.827 135.29 76.8521 135.014 76.8521C134.738 76.8521 134.5 76.8772 134.299 76.9273C133.547 77.0276 132.945 77.2533 132.494 77.6043C132.043 77.9554 131.591 78.4819 131.14 79.184C130.99 79.4849 130.864 79.8736 130.764 80.35C130.664 80.8264 130.588 81.3028 130.538 81.7792C130.488 82.2557 130.463 82.6945 130.463 83.0957V104.873C130.463 105.5 130.501 106.252 130.576 107.13C130.651 108.007 130.814 108.885 131.065 109.762C131.315 110.64 131.692 111.38 132.193 111.982C132.745 112.633 133.422 113.148 134.224 113.524C135.027 113.9 135.879 114.188 136.782 114.389C137.684 114.589 138.612 114.715 139.565 114.765C140.518 114.815 141.395 114.84 142.198 114.84H169.73ZM174.093 130.787C170.432 130.938 166.821 130.988 163.26 130.938C159.7 130.888 156.24 130.863 152.88 130.863C151.074 130.863 149.231 130.875 147.351 130.9C145.47 130.925 143.665 130.938 141.935 130.938H137.007C135.453 130.938 134.124 130.913 133.021 130.863C132.218 130.813 131.428 130.7 130.651 130.524C129.874 130.349 129.184 130.098 128.582 129.772C127.981 129.446 127.492 128.982 127.115 128.38C126.739 127.779 126.551 126.976 126.551 125.973C126.551 124.97 126.877 124.093 127.529 123.34C127.93 122.939 128.432 122.638 129.034 122.438C129.635 122.237 130.212 122.087 130.764 121.986C131.315 121.886 131.804 121.836 132.231 121.836H132.945L174.845 121.911C176.149 121.911 177.34 121.924 178.418 121.949C179.496 121.974 180.462 122.337 181.314 123.039C182.367 123.992 182.894 125.07 182.894 126.274C182.894 127.026 182.668 127.716 182.217 128.343C181.766 128.97 181.164 129.408 180.411 129.659C179.408 130.06 178.368 130.336 177.29 130.487C176.211 130.637 175.146 130.737 174.093 130.787Z" fill="url(#paint0_linear)"/>
<circle cx="99.8525" cy="97.5209" r="1.75" fill="#FEFF4D"/>
<circle cx="54.6969" cy="79.5208" r="1.75" fill="#4DD9FF"/>
<circle cx="48.9469" cy="43.7708" r="1" fill="#B5EFFF"/>
<circle cx="91.9469" cy="13.7708" r="1" fill="#F54949"/>
<circle cx="157.947" cy="29.7708" r="2" fill="#1EC89B"/>
<defs>
<linearGradient id="paint0_linear" x1="-61.1528" y1="-38.8784" x2="-57.781" y2="186.442" gradientUnits="userSpaceOnUse">
<stop stop-color="#1E1847"/>
<stop offset="1" stop-color="#497FF5"/>
</linearGradient>
</defs>
</svg>
