<svg width="81" height="15" viewBox="0 0 81 15" fill="none" xmlns="http://www.w3.org/2000/svg">
<path d="M12.2285 5.37007C12.0975 5.18915 11.8861 5.08635 11.6537 5.08635C11.3789 5.08635 11.0999 5.23438 10.8759 5.50576C9.70929 6.88734 8.85123 7.17928 8.33977 7.17928C7.9678 7.17928 7.73533 7.02714 7.64656 6.95724L7.54934 6.86267C7.47326 6.77632 7.30841 6.53783 7.32109 6.15543C7.33377 5.66201 7.64233 4.83964 9.03721 3.72533C9.32886 3.49095 9.48526 3.21135 9.47258 2.93586C9.46413 2.72204 9.35423 2.52878 9.16824 2.40543C9.03298 2.31497 8.87236 2.26562 8.70751 2.26562C8.39472 2.26562 8.07348 2.4301 7.74801 2.74671C6.42499 4.03372 6.04034 5.3125 6.61097 6.43915C6.26859 6.27467 5.90931 6.18832 5.53734 6.18832C4.6666 6.18832 3.72823 6.65707 2.81945 7.54112C2.09242 8.24836 2.33758 8.75 2.47707 8.93092C2.59965 9.0954 2.81945 9.19819 3.05615 9.19819C3.33935 9.19819 3.6141 9.05839 3.82967 8.79934C4.9963 7.41365 5.85436 7.12582 6.36581 7.12582C6.742 7.12582 6.97871 7.28207 7.06325 7.35197L7.15624 7.44244C7.2281 7.52878 7.39295 7.76316 7.38449 8.14556C7.37181 8.63898 7.06748 9.46546 5.66415 10.5839C5.31331 10.8635 5.24146 11.1431 5.24146 11.3281C5.24146 11.5461 5.3429 11.7516 5.52466 11.8956C5.6726 12.0107 5.83322 12.0683 6.0023 12.0683C6.29395 12.0683 6.60674 11.9038 6.95758 11.5625C8.28059 10.2755 8.66102 8.9926 8.09038 7.87007C8.43276 8.03454 8.79205 8.12089 9.16824 8.12089C10.0517 8.12089 10.9647 7.66447 11.8861 6.76809C12.423 6.22944 12.5329 5.78536 12.2285 5.37007Z" fill="#9C9C9C"/>
<path d="M7.33789 0C3.29275 0 0 3.19901 0 7.13816C0 11.0773 3.29275 14.2763 7.33789 14.2763C11.383 14.2763 14.6758 11.0732 14.6758 7.13816C14.6758 3.19901 11.383 0 7.33789 0ZM7.33789 13.0962C3.9606 13.0962 1.21312 10.4235 1.21312 7.13816C1.21312 3.85691 3.9606 1.18421 7.33789 1.18421C10.7152 1.18421 13.4627 3.85691 13.4627 7.13816C13.4627 10.4235 10.7152 13.0962 7.33789 13.0962Z" fill="#9C9C9C"/>
<path d="M23.3957 12.1835C22.563 12.1835 21.8317 12.1054 21.2019 11.9491C20.5721 11.7929 19.9888 11.5955 19.4478 11.3693V8.85701H19.7014C20.2382 9.3052 20.8426 9.64237 21.4978 9.88908C22.153 10.1193 22.7955 10.2427 23.4041 10.2427C23.5605 10.2427 23.7676 10.2221 24.0255 10.1934C24.2791 10.1605 24.4904 10.107 24.6384 10.0371C24.8244 9.95898 24.9892 9.84385 25.1202 9.70405C25.2513 9.56014 25.3147 9.37099 25.3147 9.1325C25.3147 8.86935 25.209 8.65142 24.9977 8.48694C24.7779 8.32247 24.5243 8.20323 24.2284 8.12099C23.8606 8.03464 23.4675 7.94007 23.0448 7.85372C22.6179 7.76737 22.2291 7.66046 21.8613 7.54122C21.0244 7.24928 20.4199 6.85866 20.0522 6.37346C19.6887 5.88826 19.5027 5.2756 19.5027 4.53958C19.5027 3.54862 19.9296 2.7427 20.7961 2.12593C21.6584 1.51326 22.7321 1.20898 24.0213 1.20898C24.6722 1.20898 25.3105 1.27066 25.9614 1.40224C26.5954 1.52971 27.1661 1.70241 27.6775 1.92444V4.34632H27.4324C27.0308 4.01326 26.5363 3.72543 25.9614 3.49517C25.3781 3.26491 24.7821 3.14977 24.165 3.14977C23.9283 3.14977 23.7127 3.17033 23.5183 3.19912C23.3323 3.23201 23.1336 3.2978 22.9223 3.38826C22.7532 3.46227 22.6052 3.57329 22.4869 3.72132C22.3559 3.87346 22.2967 4.03382 22.2967 4.21474C22.2967 4.49023 22.3939 4.70405 22.5926 4.86441C22.787 5.02066 23.1674 5.16458 23.7338 5.29204C24.0973 5.37839 24.4439 5.45652 24.7863 5.53053C25.1202 5.60454 25.4795 5.70734 25.8642 5.84303C26.6166 6.1103 27.1787 6.46392 27.5465 6.91211C27.91 7.3603 28.096 7.95652 28.096 8.68842C28.096 9.74106 27.6733 10.5881 26.8195 11.2254C25.9868 11.8628 24.837 12.1835 23.3957 12.1835Z" fill="#9C9C9C"/>
<path d="M31.3043 6.97348C31.3339 6.46772 31.4903 6.06476 31.7735 5.77693C32.0525 5.48088 32.4414 5.32874 32.9401 5.32874C33.4305 5.32874 33.8024 5.46854 34.0391 5.74815C34.2716 6.03187 34.4069 6.43072 34.4153 6.96937H31.3043V6.97348ZM34.6478 12.138C34.9479 12.0968 35.2354 12.0475 35.5143 11.9735C35.8144 11.9036 36.0554 11.8337 36.2287 11.7638C36.402 11.6939 36.5922 11.6157 36.8035 11.5376V9.4817H36.5288C36.4189 9.56805 36.2709 9.65851 36.0934 9.7572C35.9201 9.86822 35.7172 9.9669 35.5101 10.0574C35.2649 10.1643 35.0071 10.2465 34.7154 10.3164C34.428 10.3781 34.1321 10.411 33.832 10.411C33.4854 10.411 33.1599 10.3781 32.8683 10.3164C32.5766 10.2465 32.323 10.1437 32.099 9.99568C31.8707 9.84766 31.689 9.65029 31.5537 9.40358C31.4185 9.15276 31.3382 8.84026 31.3086 8.47019H36.9388V7.57381C36.9388 6.34437 36.6218 5.40275 35.9835 4.74486C35.3495 4.08285 34.4027 3.75391 33.143 3.75391C31.7566 3.75391 30.6745 4.14453 29.901 4.92167C29.1317 5.69881 28.7471 6.73499 28.7471 8.04256C28.7471 9.37068 29.1613 10.3945 29.994 11.1141C30.8182 11.8337 32.0102 12.1955 33.5657 12.1955C33.9926 12.1996 34.3477 12.1791 34.6478 12.138Z" fill="#9C9C9C"/>
<path d="M40.1849 6.97348C40.2145 6.46772 40.3751 6.06476 40.6541 5.77693C40.9373 5.48088 41.3261 5.32874 41.8291 5.32874C42.3195 5.32874 42.6872 5.46854 42.9239 5.74815C43.1648 6.03187 43.2874 6.43072 43.3001 6.96937H40.1849V6.97348ZM43.5284 12.138C43.8242 12.0968 44.1159 12.0475 44.3991 11.9735C44.695 11.9036 44.9317 11.8337 45.105 11.7638C45.2783 11.6939 45.4727 11.6157 45.6841 11.5376V9.4817H45.4135C45.2994 9.56805 45.1557 9.65851 44.9782 9.7572C44.7922 9.86822 44.5978 9.9669 44.3906 10.0574C44.1539 10.1643 43.8876 10.2465 43.596 10.3164C43.3086 10.3781 43.0127 10.411 42.7126 10.411C42.3702 10.411 42.0447 10.3781 41.7531 10.3164C41.4614 10.2465 41.2036 10.1437 40.9795 9.99568C40.7555 9.84766 40.5738 9.65029 40.43 9.40358C40.2948 9.15276 40.2102 8.84026 40.1933 8.47019H45.8236V7.57381C45.8236 6.34437 45.5108 5.40275 44.8683 4.74486C44.2342 4.08285 43.2832 3.75391 42.0278 3.75391C40.6414 3.75391 39.5593 4.14453 38.7858 4.92167C38.0165 5.69881 37.6318 6.73499 37.6318 8.04256C37.6318 9.37068 38.0461 10.3945 38.8745 11.1141C39.703 11.8337 40.895 12.1955 42.4505 12.1955C42.8774 12.1996 43.2367 12.1791 43.5284 12.138Z" fill="#9C9C9C"/>
<path d="M51.3949 9.82322C51.1751 9.90545 50.9469 9.93835 50.7144 9.93835C50.4058 9.93835 50.148 9.89312 49.9536 9.79855C49.7549 9.69986 49.5943 9.56828 49.4717 9.38736C49.3449 9.20233 49.2561 8.98851 49.2138 8.74591C49.1631 8.50332 49.1378 8.20726 49.1378 7.85776C49.1378 7.15874 49.2942 6.61598 49.6112 6.22535C49.9155 5.83884 50.3847 5.63736 51.0018 5.63736C51.1878 5.63736 51.378 5.66203 51.5598 5.69493C51.75 5.74016 51.9021 5.78539 52.0332 5.84295V9.49427C51.8303 9.63407 51.6147 9.7492 51.3949 9.82322ZM54.5905 4.00907H52.1093L52.0163 4.35858C51.7458 4.18588 51.4372 4.05019 51.1075 3.93917C50.7778 3.83226 50.3974 3.77881 49.9789 3.77881C49.5097 3.77881 49.0659 3.87338 48.6348 4.0543C48.2036 4.23522 47.8401 4.49016 47.5315 4.83144C47.2188 5.18506 46.9651 5.60858 46.7918 6.10611C46.6143 6.60776 46.5171 7.16286 46.5171 7.79197C46.5171 9.16943 46.8087 10.1933 47.3878 10.8676C47.9711 11.542 48.7912 11.875 49.8606 11.875C50.2621 11.875 50.651 11.8051 51.0314 11.653C51.4076 11.505 51.75 11.3076 52.0374 11.0568V11.2089C52.0374 11.5543 52.0036 11.8339 51.9486 12.0559C51.8895 12.2739 51.7838 12.4754 51.6401 12.6316C51.4921 12.7961 51.2766 12.9194 50.9807 13.0058C50.689 13.0921 50.3297 13.1332 49.8944 13.1332C49.6873 13.1332 49.4759 13.1168 49.2773 13.0839C49.0744 13.0551 48.8715 13.014 48.6601 12.9647C48.4868 12.9153 48.3135 12.866 48.136 12.8084C47.9627 12.7591 47.8147 12.7056 47.6837 12.6563H47.3878V14.6505C47.7513 14.741 48.1783 14.815 48.6686 14.8931C49.1631 14.963 49.683 14.9959 50.2241 14.9959C50.8792 14.9959 51.471 14.9301 51.9994 14.8027C52.532 14.6711 52.9842 14.4532 53.3689 14.1612C53.7493 13.8775 54.0536 13.4704 54.2734 12.9564C54.4932 12.4342 54.5989 11.8092 54.5989 11.0732V4.00907H54.5905Z" fill="#9C9C9C"/>
<path d="M57.8071 6.97348C57.8409 6.46772 57.9931 6.06476 58.2805 5.77693C58.5595 5.48088 58.9568 5.32874 59.4514 5.32874C59.9417 5.32874 60.3052 5.46854 60.5462 5.74815C60.7829 6.03187 60.9054 6.43072 60.9266 6.96937H57.8071V6.97348ZM61.1548 12.138C61.4507 12.0968 61.7381 12.0475 62.0213 11.9735C62.3214 11.9036 62.5582 11.8337 62.7315 11.7638C62.909 11.6939 63.0992 11.6157 63.3063 11.5376V9.4817H63.04C62.9217 9.56805 62.7822 9.65851 62.6004 9.7572C62.4187 9.86822 62.2285 9.9669 62.0129 10.0574C61.7762 10.1643 61.5057 10.2465 61.2182 10.3164C60.9266 10.3781 60.6349 10.411 60.3348 10.411C59.9924 10.411 59.6712 10.3781 59.3795 10.3164C59.0836 10.2465 58.8216 10.1437 58.6018 9.99568C58.382 9.84766 58.2002 9.65029 58.0607 9.40358C57.9255 9.15276 57.8452 8.84026 57.8198 8.47019H63.4458V7.57381C63.4458 6.34437 63.1288 5.40275 62.4948 4.74486C61.8607 4.08285 60.9139 3.75391 59.6543 3.75391C58.2636 3.75391 57.1858 4.14453 56.4165 4.92167C55.643 5.69881 55.2583 6.73499 55.2583 8.04256C55.2583 9.37068 55.6725 10.3945 56.501 11.1141C57.3295 11.8337 58.5215 12.1955 60.0812 12.1955C60.4997 12.1996 60.8632 12.1791 61.1548 12.138Z" fill="#9C9C9C"/>
<path d="M72.2039 11.9945H69.6424V8.03066C69.6424 7.70582 69.6297 7.38099 69.6001 7.06438C69.579 6.74365 69.524 6.50105 69.4522 6.35303C69.3634 6.17622 69.2408 6.04875 69.0717 5.97063C68.9027 5.88839 68.6829 5.85138 68.4039 5.85138C68.1925 5.85138 67.977 5.88839 67.7699 5.9624C67.5543 6.04053 67.3218 6.15977 67.0766 6.32424V11.9904H64.5151V4.00928H67.0766V4.87688C67.4951 4.53148 67.9009 4.26832 68.3024 4.06684C68.6998 3.86947 69.1351 3.7749 69.617 3.7749C70.4582 3.7749 71.0964 4.03395 71.5403 4.54793C71.9799 5.06191 72.2039 5.81026 72.2039 6.78477V11.9945Z" fill="#9C9C9C"/>
<path d="M75.3613 6.97348C75.3909 6.46772 75.5473 6.06476 75.8305 5.77693C76.1095 5.48088 76.5068 5.32874 77.0056 5.32874C77.4959 5.32874 77.8594 5.46854 78.1004 5.74815C78.3371 6.03187 78.4596 6.43072 78.4765 6.96937H75.3613V6.97348ZM78.7133 12.138C79.0134 12.0968 79.2966 12.0475 79.5755 11.9735C79.8756 11.9036 80.1124 11.8337 80.2899 11.7638C80.459 11.6939 80.6534 11.6157 80.8605 11.5376V9.4817H80.5815C80.4801 9.56805 80.3279 9.65851 80.1504 9.7572C79.9729 9.86822 79.7784 9.9669 79.5671 10.0574C79.3262 10.1643 79.0556 10.2465 78.7724 10.3164C78.485 10.3781 78.1891 10.411 77.889 10.411C77.5424 10.411 77.2169 10.3781 76.9253 10.3164C76.6294 10.2465 76.3758 10.1437 76.1518 9.99568C75.9277 9.84766 75.746 9.65029 75.6107 9.40358C75.4754 9.15276 75.3951 8.84026 75.3698 8.47019H80.9958V7.57381C80.9958 6.34437 80.683 5.40275 80.0405 4.74486C79.4065 4.08285 78.4596 3.75391 77.2 3.75391C75.8094 3.75391 74.7315 4.14453 73.9622 4.92167C73.1845 5.69881 72.8125 6.73499 72.8125 8.04256C72.8125 9.37068 73.2225 10.3945 74.0468 11.1141C74.8795 11.8337 76.0714 12.1955 77.6269 12.1955C78.0581 12.1996 78.4131 12.1791 78.7133 12.138Z" fill="#9C9C9C"/>
</svg>
